<svg width="396" height="202" viewBox="0 0 396 202" fill="none" xmlns="http://www.w3.org/2000/svg">
<g clip-path="url(#clip0_1142_3269)">
<path d="M0 60.3524C0 49.5932 8.72207 40.8711 19.4813 40.8711H375.989C386.748 40.8711 395.47 49.5932 395.47 60.3524V182.11C395.47 192.87 386.748 201.592 375.989 201.592H19.4813C8.7221 201.592 0 192.87 0 182.11V60.3524Z" fill="#C5ECDF"/>
<path d="M19.4813 70.0922C19.4813 64.7126 23.8424 60.3516 29.222 60.3516H177.341C182.72 60.3516 187.081 64.7126 187.081 70.0922V89.5735C187.081 94.9531 182.72 99.3141 177.341 99.3141H29.222C23.8424 99.3141 19.4813 94.9531 19.4813 89.5735V70.0922Z" fill="#059669" fill-opacity="0.3"/>
<g clip-path="url(#clip1_1142_3269)">
<path d="M38.9629 87.9532V73.3422C38.9629 72.9116 39.1339 72.4987 39.4384 72.1942C39.7428 71.8898 40.1558 71.7188 40.5863 71.7188H47.0801C47.5107 71.7188 47.9236 71.8898 48.228 72.1942C48.5325 72.4987 48.7035 72.9116 48.7035 73.3422V87.9532H38.9629Z" stroke="white" stroke-width="2.43516" stroke-linecap="round" stroke-linejoin="round"/>
<path d="M38.9665 79.8359H37.343C36.9125 79.8359 36.4996 80.007 36.1951 80.3114C35.8906 80.6159 35.7196 81.0288 35.7196 81.4594V86.3297C35.7196 86.7603 35.8906 87.1732 36.1951 87.4776C36.4996 87.7821 36.9125 87.9531 37.343 87.9531H38.9665" stroke="white" stroke-width="2.43516" stroke-linecap="round" stroke-linejoin="round"/>
<path d="M48.704 77.3984H50.3274C50.758 77.3984 51.1709 77.5695 51.4754 77.8739C51.7798 78.1784 51.9509 78.5913 51.9509 79.0219V86.3274C51.9509 86.7579 51.7798 87.1709 51.4754 87.4753C51.1709 87.7798 50.758 87.9508 50.3274 87.9508H48.704" stroke="white" stroke-width="2.43516" stroke-linecap="round" stroke-linejoin="round"/>
<path d="M42.2069 74.9648H45.4538" stroke="white" stroke-width="2.43516" stroke-linecap="round" stroke-linejoin="round"/>
<path d="M42.2069 78.2109H45.4538" stroke="white" stroke-width="2.43516" stroke-linecap="round" stroke-linejoin="round"/>
<path d="M42.2069 81.4609H45.4538" stroke="white" stroke-width="2.43516" stroke-linecap="round" stroke-linejoin="round"/>
<path d="M42.2068 84.7031H45.4537" stroke="white" stroke-width="2.43516" stroke-linecap="round" stroke-linejoin="round"/>
</g>
<path d="M87.2531 84.6328V74.0952H94.3537V75.9321H89.481V78.443H93.9883V80.2799H89.481V82.7959H94.3742V84.6328H87.2531ZM96.1249 84.6328V74.0952H98.3168V78.0571H98.3837C98.4798 77.8444 98.6187 77.6283 98.8005 77.4088C98.9857 77.1858 99.2258 77.0006 99.5208 76.8531C99.8193 76.7022 100.19 76.6267 100.632 76.6267C101.208 76.6267 101.74 76.7776 102.227 77.0795C102.714 77.3779 103.104 77.829 103.395 78.4327C103.687 79.033 103.833 79.7859 103.833 80.6915C103.833 81.5731 103.69 82.3174 103.406 82.9246C103.124 83.5283 102.74 83.9862 102.253 84.2984C101.769 84.6071 101.227 84.7614 100.627 84.7614C100.202 84.7614 99.8398 84.6911 99.5414 84.5505C99.2464 84.4098 99.0046 84.2332 98.8159 84.0205C98.6273 83.8044 98.4832 83.5866 98.3837 83.3671H98.286V84.6328H96.1249ZM98.2705 80.6812C98.2705 81.1511 98.3357 81.5611 98.466 81.9109C98.5964 82.2608 98.7851 82.5335 99.032 82.729C99.279 82.9211 99.5791 83.0172 99.9325 83.0172C100.289 83.0172 100.591 82.9194 100.838 82.7239C101.085 82.5249 101.272 82.2505 101.399 81.9007C101.529 81.5473 101.594 81.1409 101.594 80.6812C101.594 80.225 101.531 79.8237 101.404 79.4772C101.277 79.1308 101.09 78.8598 100.843 78.6642C100.596 78.4687 100.293 78.371 99.9325 78.371C99.5757 78.371 99.2739 78.4653 99.0269 78.654C98.7833 78.8426 98.5964 79.1102 98.466 79.4566C98.3357 79.8031 98.2705 80.2113 98.2705 80.6812ZM105.295 84.6328V76.7296H107.487V84.6328H105.295ZM106.396 75.7108C106.07 75.7108 105.791 75.6028 105.558 75.3867C105.328 75.1671 105.213 74.9047 105.213 74.5994C105.213 74.2976 105.328 74.0386 105.558 73.8225C105.791 73.603 106.07 73.4932 106.396 73.4932C106.722 73.4932 107 73.603 107.23 73.8225C107.463 74.0386 107.58 74.2976 107.58 74.5994C107.58 74.9047 107.463 75.1671 107.23 75.3867C107 75.6028 106.722 75.7108 106.396 75.7108ZM109.243 84.6328V76.7296H111.368V78.1086H111.45C111.594 77.618 111.836 77.2476 112.176 76.9972C112.515 76.7433 112.906 76.6164 113.349 76.6164C113.459 76.6164 113.577 76.6233 113.704 76.637C113.831 76.6507 113.942 76.6696 114.038 76.6936V78.6385C113.935 78.6076 113.793 78.5802 113.611 78.5562C113.429 78.5322 113.263 78.5202 113.112 78.5202C112.79 78.5202 112.502 78.5905 112.248 78.7311C111.997 78.8683 111.798 79.0604 111.651 79.3074C111.507 79.5544 111.435 79.8391 111.435 80.1615V84.6328H109.243ZM115.172 84.6328V76.7296H117.297V78.1086H117.379C117.523 77.618 117.765 77.2476 118.104 76.9972C118.444 76.7433 118.835 76.6164 119.278 76.6164C119.387 76.6164 119.506 76.6233 119.633 76.637C119.76 76.6507 119.871 76.6696 119.967 76.6936V78.6385C119.864 78.6076 119.722 78.5802 119.54 78.5562C119.358 78.5322 119.192 78.5202 119.041 78.5202C118.718 78.5202 118.43 78.5905 118.176 78.7311C117.926 78.8683 117.727 79.0604 117.58 79.3074C117.436 79.5544 117.364 79.8391 117.364 80.1615V84.6328H115.172Z" fill="white"/>
<path d="M157.857 77.3984L162.728 82.2688L167.598 77.3984" stroke="white" stroke-width="2.43516" stroke-linecap="round" stroke-linejoin="round"/>
<path d="M24.0299 122.995V124.024H19.9342V122.995H24.0299ZM21.1279 121.102H22.3422V128.634C22.3422 128.978 22.392 129.235 22.4915 129.406C22.5944 129.574 22.7247 129.688 22.8825 129.746C23.0437 129.801 23.2135 129.828 23.3919 129.828C23.5257 129.828 23.6354 129.821 23.7212 129.808C23.8069 129.79 23.8755 129.777 23.927 129.766L24.174 130.857C24.0916 130.888 23.9767 130.919 23.8292 130.95C23.6817 130.984 23.4948 131.001 23.2684 131.001C22.9254 131.001 22.5892 130.928 22.2599 130.78C21.934 130.633 21.6631 130.408 21.447 130.106C21.2343 129.804 21.1279 129.423 21.1279 128.964V121.102ZM28.9823 131.063C28.2688 131.063 27.6428 130.893 27.1042 130.554C26.5691 130.214 26.1506 129.739 25.8488 129.128C25.5503 128.518 25.4011 127.804 25.4011 126.988C25.4011 126.165 25.5503 125.446 25.8488 124.832C26.1506 124.218 26.5691 123.741 27.1042 123.402C27.6428 123.062 28.2688 122.892 28.9823 122.892C29.6958 122.892 30.3201 123.062 30.8552 123.402C31.3937 123.741 31.8122 124.218 32.1106 124.832C32.4125 125.446 32.5634 126.165 32.5634 126.988C32.5634 127.804 32.4125 128.518 32.1106 129.128C31.8122 129.739 31.3937 130.214 30.8552 130.554C30.3201 130.893 29.6958 131.063 28.9823 131.063ZM28.9823 129.972C29.5242 129.972 29.9702 129.833 30.3201 129.556C30.6699 129.278 30.9289 128.912 31.097 128.46C31.2651 128.007 31.3491 127.516 31.3491 126.988C31.3491 126.46 31.2651 125.968 31.097 125.511C30.9289 125.055 30.6699 124.686 30.3201 124.405C29.9702 124.124 29.5242 123.983 28.9823 123.983C28.4403 123.983 27.9944 124.124 27.6445 124.405C27.2946 124.686 27.0356 125.055 26.8675 125.511C26.6995 125.968 26.6154 126.46 26.6154 126.988C26.6154 127.516 26.6995 128.007 26.8675 128.46C27.0356 128.912 27.2946 129.278 27.6445 129.556C27.9944 129.833 28.4403 129.972 28.9823 129.972ZM37.8541 122.995V124.024H33.7584V122.995H37.8541ZM34.9521 121.102H36.1664V128.634C36.1664 128.978 36.2162 129.235 36.3156 129.406C36.4185 129.574 36.5489 129.688 36.7067 129.746C36.8679 129.801 37.0377 129.828 37.2161 129.828C37.3498 129.828 37.4596 129.821 37.5454 129.808C37.6311 129.79 37.6997 129.777 37.7512 129.766L37.9981 130.857C37.9158 130.888 37.8009 130.919 37.6534 130.95C37.5059 130.984 37.319 131.001 37.0926 131.001C36.7496 131.001 36.4134 130.928 36.0841 130.78C35.7582 130.633 35.4872 130.408 35.2711 130.106C35.0585 129.804 34.9521 129.423 34.9521 128.964V121.102ZM42.0063 131.084C41.5055 131.084 41.051 130.989 40.6428 130.801C40.2346 130.609 39.9105 130.332 39.6704 129.972C39.4303 129.609 39.3102 129.17 39.3102 128.655C39.3102 128.202 39.3994 127.835 39.5778 127.554C39.7561 127.269 39.9945 127.046 40.293 126.885C40.5914 126.724 40.9207 126.604 41.2809 126.525C41.6445 126.443 42.0098 126.377 42.3768 126.329C42.857 126.268 43.2464 126.221 43.5448 126.19C43.8467 126.156 44.0662 126.1 44.2034 126.021C44.344 125.942 44.4144 125.805 44.4144 125.609V125.568C44.4144 125.06 44.2754 124.666 43.9976 124.384C43.7232 124.103 43.3064 123.963 42.7473 123.963C42.1676 123.963 41.7131 124.089 41.3838 124.343C41.0545 124.597 40.8229 124.868 40.6891 125.156L39.5366 124.745C39.7424 124.264 40.0168 123.891 40.3598 123.623C40.7063 123.352 41.0836 123.163 41.4918 123.057C41.9034 122.947 42.3082 122.892 42.7061 122.892C42.9599 122.892 43.2515 122.923 43.5808 122.985C43.9135 123.043 44.2343 123.165 44.543 123.35C44.8551 123.535 45.1141 123.815 45.3199 124.189C45.5257 124.563 45.6286 125.064 45.6286 125.691V130.898H44.4144V129.828H44.3526C44.2703 130 44.1331 130.183 43.941 130.379C43.7489 130.574 43.4933 130.741 43.1743 130.878C42.8553 131.015 42.466 131.084 42.0063 131.084ZM42.1916 129.993C42.6718 129.993 43.0766 129.899 43.4059 129.71C43.7386 129.521 43.989 129.278 44.1571 128.979C44.3286 128.681 44.4144 128.367 44.4144 128.038V126.926C44.3629 126.988 44.2497 127.045 44.0748 127.096C43.9033 127.144 43.7043 127.187 43.4779 127.225C43.2549 127.259 43.0371 127.29 42.8245 127.317C42.6152 127.341 42.4454 127.362 42.3151 127.379C41.9995 127.42 41.7045 127.487 41.4301 127.58C41.1591 127.669 40.9396 127.804 40.7715 127.986C40.6068 128.165 40.5245 128.408 40.5245 128.717C40.5245 129.139 40.6806 129.458 40.9927 129.674C41.3083 129.887 41.7079 129.993 42.1916 129.993ZM49.0593 120.361V130.898H47.845V120.361H49.0593ZM55.5231 130.898V120.361H56.7374V124.251H56.8403C56.9295 124.113 57.053 123.939 57.2108 123.726C57.372 123.51 57.6018 123.318 57.9002 123.15C58.2021 122.978 58.6103 122.892 59.1248 122.892C59.7903 122.892 60.3768 123.059 60.8845 123.391C61.3922 123.724 61.7884 124.196 62.0731 124.806C62.3578 125.417 62.5001 126.137 62.5001 126.967C62.5001 127.804 62.3578 128.53 62.0731 129.144C61.7884 129.754 61.3939 130.228 60.8897 130.564C60.3854 130.897 59.804 131.063 59.1454 131.063C58.6377 131.063 58.2312 130.979 57.926 130.811C57.6207 130.639 57.3857 130.446 57.221 130.23C57.0564 130.01 56.9295 129.828 56.8403 129.684H56.6962V130.898H55.5231ZM56.7168 126.947C56.7168 127.544 56.8043 128.07 56.9792 128.526C57.1542 128.979 57.4097 129.334 57.7459 129.592C58.082 129.845 58.4937 129.972 58.9807 129.972C59.4884 129.972 59.912 129.839 60.2516 129.571C60.5947 129.3 60.8519 128.936 61.0234 128.48C61.1984 128.02 61.2858 127.509 61.2858 126.947C61.2858 126.391 61.2001 125.89 61.0286 125.444C60.8605 124.995 60.6049 124.64 60.2619 124.379C59.9223 124.115 59.4953 123.983 58.9807 123.983C58.4868 123.983 58.0717 124.108 57.7356 124.359C57.3994 124.606 57.1456 124.952 56.9741 125.398C56.8026 125.841 56.7168 126.357 56.7168 126.947ZM66.6833 131.084C66.1825 131.084 65.728 130.989 65.3198 130.801C64.9116 130.609 64.5874 130.332 64.3473 129.972C64.1072 129.609 63.9871 129.17 63.9871 128.655C63.9871 128.202 64.0763 127.835 64.2547 127.554C64.4331 127.269 64.6715 127.046 64.9699 126.885C65.2683 126.724 65.5976 126.604 65.9578 126.525C66.3214 126.443 66.6867 126.377 67.0537 126.329C67.534 126.268 67.9233 126.221 68.2217 126.19C68.5236 126.156 68.7431 126.1 68.8803 126.021C69.021 125.942 69.0913 125.805 69.0913 125.609V125.568C69.0913 125.06 68.9524 124.666 68.6745 124.384C68.4001 124.103 67.9833 123.963 67.4242 123.963C66.8445 123.963 66.39 124.089 66.0607 124.343C65.7314 124.597 65.4999 124.868 65.3661 125.156L64.2135 124.745C64.4193 124.264 64.6938 123.891 65.0368 123.623C65.3832 123.352 65.7606 123.163 66.1687 123.057C66.5804 122.947 66.9851 122.892 67.383 122.892C67.6369 122.892 67.9284 122.923 68.2577 122.985C68.5905 123.043 68.9112 123.165 69.2199 123.35C69.5321 123.535 69.791 123.815 69.9969 124.189C70.2027 124.563 70.3056 125.064 70.3056 125.691V130.898H69.0913V129.828H69.0295C68.9472 130 68.81 130.183 68.6179 130.379C68.4258 130.574 68.1703 130.741 67.8513 130.878C67.5323 131.015 67.1429 131.084 66.6833 131.084ZM66.8685 129.993C67.3487 129.993 67.7535 129.899 68.0828 129.71C68.4155 129.521 68.6659 129.278 68.834 128.979C69.0055 128.681 69.0913 128.367 69.0913 128.038V126.926C69.0398 126.988 68.9266 127.045 68.7517 127.096C68.5802 127.144 68.3812 127.187 68.1548 127.225C67.9319 127.259 67.7141 127.29 67.5014 127.317C67.2921 127.341 67.1223 127.362 66.992 127.379C66.6764 127.42 66.3814 127.487 66.107 127.58C65.836 127.669 65.6165 127.804 65.4484 127.986C65.2838 128.165 65.2014 128.408 65.2014 128.717C65.2014 129.139 65.3575 129.458 65.6697 129.674C65.9852 129.887 66.3849 129.993 66.8685 129.993ZM73.7362 120.361V130.898H72.5219V120.361H73.7362ZM78.286 131.084C77.7852 131.084 77.3306 130.989 76.9225 130.801C76.5143 130.609 76.1901 130.332 75.95 129.972C75.7099 129.609 75.5898 129.17 75.5898 128.655C75.5898 128.202 75.679 127.835 75.8574 127.554C76.0357 127.269 76.2741 127.046 76.5726 126.885C76.871 126.724 77.2003 126.604 77.5605 126.525C77.9241 126.443 78.2894 126.377 78.6564 126.329C79.1367 126.268 79.526 126.221 79.8244 126.19C80.1263 126.156 80.3458 126.1 80.483 126.021C80.6237 125.942 80.694 125.805 80.694 125.609V125.568C80.694 125.06 80.555 124.666 80.2772 124.384C80.0028 124.103 79.586 123.963 79.0269 123.963C78.4472 123.963 77.9927 124.089 77.6634 124.343C77.3341 124.597 77.1025 124.868 76.9688 125.156L75.8162 124.745C76.022 124.264 76.2964 123.891 76.6395 123.623C76.9859 123.352 77.3632 123.163 77.7714 123.057C78.1831 122.947 78.5878 122.892 78.9857 122.892C79.2396 122.892 79.5311 122.923 79.8604 122.985C80.1932 123.043 80.5139 123.165 80.8226 123.35C81.1348 123.535 81.3937 123.815 81.5995 124.189C81.8054 124.563 81.9083 125.064 81.9083 125.691V130.898H80.694V129.828H80.6322C80.5499 130 80.4127 130.183 80.2206 130.379C80.0285 130.574 79.773 130.741 79.4539 130.878C79.1349 131.015 78.7456 131.084 78.286 131.084ZM78.4712 129.993C78.9514 129.993 79.3562 129.899 79.6855 129.71C80.0182 129.521 80.2686 129.278 80.4367 128.979C80.6082 128.681 80.694 128.367 80.694 128.038V126.926C80.6425 126.988 80.5293 127.045 80.3544 127.096C80.1829 127.144 79.9839 127.187 79.7575 127.225C79.5346 127.259 79.3167 127.29 79.1041 127.317C78.8948 127.341 78.725 127.362 78.5947 127.379C78.2791 127.42 77.9841 127.487 77.7097 127.58C77.4387 127.669 77.2192 127.804 77.0511 127.986C76.8864 128.165 76.8041 128.408 76.8041 128.717C76.8041 129.139 76.9602 129.458 77.2723 129.674C77.5879 129.887 77.9875 129.993 78.4712 129.993ZM85.3389 126.144V130.898H84.1246V122.995H85.2977V124.23H85.4006C85.5859 123.829 85.8672 123.506 86.2445 123.263C86.6218 123.016 87.1089 122.892 87.7057 122.892C88.2409 122.892 88.7091 123.002 89.1104 123.222C89.5118 123.438 89.8239 123.767 90.0469 124.21C90.2698 124.649 90.3813 125.204 90.3813 125.877V130.898H89.167V125.959C89.167 125.338 89.0058 124.854 88.6834 124.508C88.3609 124.158 87.9184 123.983 87.3559 123.983C86.9683 123.983 86.6218 124.067 86.3165 124.235C86.0147 124.403 85.7763 124.649 85.6013 124.971C85.4264 125.293 85.3389 125.685 85.3389 126.144ZM95.8109 131.063C95.07 131.063 94.432 130.888 93.8969 130.538C93.3617 130.188 92.9501 129.706 92.662 129.092C92.3738 128.478 92.2298 127.777 92.2298 126.988C92.2298 126.185 92.3773 125.477 92.6723 124.863C92.9707 124.246 93.3858 123.764 93.9174 123.417C94.4525 123.067 95.0768 122.892 95.7903 122.892C96.346 122.892 96.8468 122.995 97.2928 123.201C97.7387 123.407 98.104 123.695 98.3887 124.065C98.6734 124.436 98.8501 124.868 98.9187 125.362H97.7044C97.6118 125.002 97.406 124.683 97.0869 124.405C96.7714 124.124 96.346 123.983 95.8109 123.983C95.3375 123.983 94.9225 124.107 94.5657 124.354C94.2124 124.597 93.9363 124.942 93.7373 125.388C93.5418 125.83 93.4441 126.35 93.4441 126.947C93.4441 127.557 93.5401 128.089 93.7322 128.542C93.9277 128.995 94.2021 129.346 94.5555 129.597C94.9122 129.847 95.3307 129.972 95.8109 129.972C96.1265 129.972 96.4129 129.917 96.6702 129.808C96.9274 129.698 97.1453 129.54 97.3236 129.334C97.502 129.128 97.6289 128.881 97.7044 128.593H98.9187C98.8501 129.06 98.6803 129.48 98.4093 129.854C98.1417 130.224 97.7867 130.519 97.3442 130.739C96.9051 130.955 96.394 131.063 95.8109 131.063ZM104.007 131.063C103.246 131.063 102.589 130.895 102.037 130.559C101.488 130.219 101.064 129.746 100.766 129.139C100.471 128.528 100.323 127.818 100.323 127.009C100.323 126.199 100.471 125.486 100.766 124.868C101.064 124.247 101.479 123.764 102.011 123.417C102.546 123.067 103.17 122.892 103.884 122.892C104.296 122.892 104.702 122.961 105.103 123.098C105.505 123.235 105.87 123.458 106.199 123.767C106.529 124.072 106.791 124.477 106.987 124.981C107.182 125.486 107.28 126.106 107.28 126.844V127.358H101.188V126.309H106.045C106.045 125.863 105.956 125.465 105.777 125.115C105.602 124.765 105.352 124.489 105.026 124.287C104.704 124.084 104.323 123.983 103.884 123.983C103.4 123.983 102.982 124.103 102.628 124.343C102.279 124.58 102.009 124.889 101.821 125.269C101.632 125.65 101.538 126.058 101.538 126.494V127.194C101.538 127.791 101.641 128.297 101.846 128.712C102.056 129.123 102.345 129.437 102.716 129.653C103.086 129.866 103.517 129.972 104.007 129.972C104.326 129.972 104.615 129.928 104.872 129.839C105.133 129.746 105.357 129.609 105.546 129.427C105.735 129.242 105.88 129.012 105.983 128.737L107.156 129.067C107.033 129.465 106.825 129.814 106.534 130.116C106.242 130.415 105.882 130.648 105.453 130.816C105.024 130.981 104.543 131.063 104.007 131.063Z" fill="white"/>
<path d="M26.9082 174.406V151.826H28.3548V174.406H26.9082ZM31.0803 159.05C30.998 158.28 30.6511 157.68 30.0395 157.251C29.4338 156.821 28.6459 156.607 27.6756 156.607C26.9935 156.607 26.4084 156.71 25.9203 156.915C25.4322 157.121 25.0588 157.4 24.8001 157.753C24.5414 158.106 24.4091 158.509 24.4032 158.962C24.4032 159.338 24.4885 159.664 24.659 159.941C24.8354 160.217 25.0735 160.452 25.3734 160.646C25.6733 160.835 26.0056 160.993 26.3702 161.123C26.7347 161.252 27.1023 161.361 27.4727 161.449L29.1663 161.873C29.8484 162.031 30.5041 162.246 31.1333 162.516C31.7683 162.787 32.3358 163.128 32.8356 163.54C33.3413 163.951 33.7412 164.448 34.0352 165.03C34.3292 165.612 34.4762 166.295 34.4762 167.077C34.4762 168.135 34.2057 169.067 33.6648 169.873C33.1238 170.672 32.3417 171.299 31.3185 171.752C30.3012 172.198 29.0693 172.422 27.6227 172.422C26.2173 172.422 24.9971 172.204 23.9622 171.769C22.9331 171.334 22.1275 170.699 21.5453 169.864C20.9691 169.029 20.6574 168.012 20.6104 166.812H23.8298C23.8769 167.441 24.0709 167.965 24.412 168.382C24.7531 168.8 25.197 169.111 25.7439 169.317C26.2967 169.523 26.9141 169.626 27.5962 169.626C28.3077 169.626 28.9311 169.52 29.4662 169.308C30.0072 169.091 30.4306 168.791 30.7363 168.409C31.0421 168.02 31.1979 167.568 31.2038 167.05C31.1979 166.58 31.0598 166.192 30.7893 165.886C30.5188 165.574 30.1395 165.315 29.6514 165.11C29.1692 164.898 28.6047 164.71 27.9579 164.545L25.9027 164.016C24.4149 163.634 23.2389 163.054 22.3745 162.278C21.5159 161.496 21.0867 160.458 21.0867 159.165C21.0867 158.1 21.3748 157.168 21.9511 156.368C22.5332 155.569 23.3241 154.948 24.3238 154.507C25.3235 154.06 26.4554 153.837 27.7197 153.837C29.0016 153.837 30.1248 154.06 31.0892 154.507C32.0594 154.948 32.8209 155.563 33.3737 156.351C33.9264 157.133 34.2116 158.033 34.2293 159.05H31.0803Z" fill="white"/>
<path d="M37.3152 172.148V169.785L43.5866 163.637C44.1864 163.031 44.6862 162.493 45.0861 162.022C45.4859 161.552 45.7858 161.096 45.9858 160.655C46.1857 160.214 46.2857 159.744 46.2857 159.244C46.2857 158.674 46.1563 158.186 45.8976 157.78C45.6388 157.368 45.2831 157.051 44.8303 156.827C44.3775 156.604 43.863 156.492 43.2867 156.492C42.6928 156.492 42.1724 156.615 41.7254 156.862C41.2785 157.104 40.9316 157.448 40.6846 157.894C40.4435 158.341 40.323 158.874 40.323 159.491H37.2093C37.2093 158.344 37.471 157.348 37.9944 156.501C38.5177 155.654 39.2381 154.998 40.1554 154.534C41.0786 154.069 42.1371 153.837 43.3308 153.837C44.5421 153.837 45.6065 154.063 46.5238 154.516C47.4412 154.969 48.1527 155.589 48.6584 156.377C49.17 157.165 49.4258 158.065 49.4258 159.076C49.4258 159.753 49.2964 160.417 49.0377 161.07C48.7789 161.723 48.3232 162.446 47.6705 163.24C47.0237 164.034 46.1151 164.995 44.9449 166.124L41.8313 169.291V169.414H49.6992V172.148H37.3152ZM56.5263 169.679L56.4116 170.649C56.3293 171.39 56.1823 172.143 55.9706 172.907C55.7648 173.677 55.5472 174.386 55.3179 175.033C55.0886 175.68 54.9033 176.188 54.7622 176.559H52.61C52.6923 176.2 52.804 175.712 52.9452 175.094C53.0922 174.477 53.2333 173.783 53.3686 173.013C53.5038 172.243 53.595 171.46 53.642 170.667L53.7037 169.679H56.5263ZM59.7414 168.797V166.195L67.4065 154.084H69.5763V157.789H68.2532L63.0932 165.965V166.106H73.7925V168.797H59.7414ZM68.3591 172.148V168.003L68.3944 166.838V154.084H71.4815V172.148H68.3591ZM82.8909 172.395C81.7148 172.395 80.6623 172.175 79.7332 171.734C78.8041 171.287 78.0661 170.675 77.5192 169.899C76.9782 169.123 76.6901 168.235 76.6548 167.235H79.8302C79.889 167.976 80.2095 168.582 80.7916 169.052C81.3738 169.517 82.0735 169.749 82.8909 169.749C83.5319 169.749 84.1023 169.602 84.6021 169.308C85.1019 169.014 85.4959 168.606 85.784 168.082C86.0722 167.559 86.2133 166.962 86.2074 166.292C86.2133 165.609 86.0692 165.004 85.7752 164.475C85.4812 163.945 85.0784 163.531 84.5668 163.231C84.0552 162.925 83.4672 162.772 82.8027 162.772C82.2617 162.766 81.7295 162.866 81.2062 163.072C80.6828 163.278 80.2683 163.548 79.9625 163.884L77.0076 163.398L77.9514 154.084H88.4302V156.818H80.6593L80.1389 161.608H80.2447C80.5799 161.214 81.0533 160.888 81.6649 160.629C82.2764 160.364 82.9468 160.232 83.6759 160.232C84.7697 160.232 85.7458 160.491 86.6044 161.008C87.4629 161.52 88.1391 162.225 88.6331 163.125C89.127 164.025 89.374 165.054 89.374 166.212C89.374 167.406 89.0976 168.47 88.5449 169.405C87.998 170.334 87.2365 171.066 86.2604 171.602C85.2901 172.131 84.1669 172.395 82.8909 172.395ZM99.006 172.492C97.5536 172.492 96.307 172.125 95.2661 171.39C94.2312 170.649 93.4344 169.582 92.8758 168.188C92.323 166.788 92.0466 165.104 92.0466 163.134C92.0525 161.164 92.3318 159.488 92.8846 158.106C93.4432 156.718 94.24 155.66 95.2749 154.931C96.3158 154.202 97.5595 153.837 99.006 153.837C100.453 153.837 101.696 154.202 102.737 154.931C103.778 155.66 104.575 156.718 105.127 158.106C105.686 159.494 105.965 161.17 105.965 163.134C105.965 165.11 105.686 166.797 105.127 168.197C104.575 169.59 103.778 170.655 102.737 171.39C101.702 172.125 100.458 172.492 99.006 172.492ZM99.006 169.732C100.135 169.732 101.026 169.176 101.679 168.065C102.337 166.947 102.667 165.304 102.667 163.134C102.667 161.699 102.517 160.494 102.217 159.517C101.917 158.541 101.493 157.806 100.947 157.312C100.4 156.812 99.7528 156.563 99.006 156.563C97.8829 156.563 96.995 157.121 96.3422 158.238C95.6895 159.35 95.3602 160.982 95.3543 163.134C95.3485 164.575 95.4925 165.786 95.7865 166.768C96.0864 167.75 96.5098 168.491 97.0567 168.991C97.6036 169.485 98.2534 169.732 99.006 169.732ZM110.195 172.342C109.66 172.342 109.201 172.154 108.819 171.778C108.437 171.402 108.248 170.943 108.254 170.402C108.248 169.873 108.437 169.42 108.819 169.044C109.201 168.667 109.66 168.479 110.195 168.479C110.712 168.479 111.162 168.667 111.544 169.044C111.933 169.42 112.13 169.873 112.135 170.402C112.13 170.761 112.035 171.087 111.853 171.381C111.677 171.675 111.442 171.91 111.148 172.087C110.859 172.257 110.542 172.342 110.195 172.342ZM121.371 172.492C119.918 172.492 118.671 172.125 117.631 171.39C116.596 170.649 115.799 169.582 115.24 168.188C114.687 166.788 114.411 165.104 114.411 163.134C114.417 161.164 114.696 159.488 115.249 158.106C115.808 156.718 116.604 155.66 117.639 154.931C118.68 154.202 119.924 153.837 121.371 153.837C122.817 153.837 124.061 154.202 125.102 154.931C126.142 155.66 126.939 156.718 127.492 158.106C128.051 159.494 128.33 161.17 128.33 163.134C128.33 165.11 128.051 166.797 127.492 168.197C126.939 169.59 126.142 170.655 125.102 171.39C124.067 172.125 122.823 172.492 121.371 172.492ZM121.371 169.732C122.5 169.732 123.39 169.176 124.043 168.065C124.702 166.947 125.031 165.304 125.031 163.134C125.031 161.699 124.881 160.494 124.581 159.517C124.281 158.541 123.858 157.806 123.311 157.312C122.764 156.812 122.117 156.563 121.371 156.563C120.247 156.563 119.359 157.121 118.707 158.238C118.054 159.35 117.725 160.982 117.719 163.134C117.713 164.575 117.857 165.786 118.151 166.768C118.451 167.75 118.874 168.491 119.421 168.991C119.968 169.485 120.618 169.732 121.371 169.732ZM137.938 172.492C136.485 172.492 135.239 172.125 134.198 171.39C133.163 170.649 132.366 169.582 131.807 168.188C131.255 166.788 130.978 165.104 130.978 163.134C130.984 161.164 131.263 159.488 131.816 158.106C132.375 156.718 133.172 155.66 134.207 154.931C135.247 154.202 136.491 153.837 137.938 153.837C139.384 153.837 140.628 154.202 141.669 154.931C142.71 155.66 143.506 156.718 144.059 158.106C144.618 159.494 144.897 161.17 144.897 163.134C144.897 165.11 144.618 166.797 144.059 168.197C143.506 169.59 142.71 170.655 141.669 171.39C140.634 172.125 139.39 172.492 137.938 172.492ZM137.938 169.732C139.067 169.732 139.958 169.176 140.61 168.065C141.269 166.947 141.598 165.304 141.598 163.134C141.598 161.699 141.448 160.494 141.148 159.517C140.848 158.541 140.425 157.806 139.878 157.312C139.331 156.812 138.685 156.563 137.938 156.563C136.815 156.563 135.927 157.121 135.274 158.238C134.621 159.35 134.292 160.982 134.286 163.134C134.28 164.575 134.424 165.786 134.718 166.768C135.018 167.75 135.441 168.491 135.988 168.991C136.535 169.485 137.185 169.732 137.938 169.732Z" fill="white"/>
<path d="M317.541 40.8705C317.541 -2.1664 352.429 -37.0547 395.466 -37.0547C438.503 -37.0547 473.391 -2.1664 473.391 40.8705C473.391 83.9073 438.503 118.796 395.466 118.796C352.429 118.796 317.541 83.9073 317.541 40.8705Z" fill="#34D399"/>
<path d="M337.022 201.592C337.022 169.315 363.189 143.148 395.466 143.148C427.744 143.148 453.91 169.315 453.91 201.592C453.91 233.87 427.744 260.036 395.466 260.036C363.189 260.036 337.022 233.87 337.022 201.592Z" fill="#34D399"/>
</g>
<g clip-path="url(#clip2_1142_3269)">
<path d="M0 42.9578C0 32.1986 8.72207 23.4766 19.4813 23.4766H375.989C386.748 23.4766 395.47 32.1986 395.47 42.9578V164.716C395.47 175.475 386.748 184.197 375.989 184.197H19.4813C8.7221 184.197 0 175.475 0 164.716V42.9578Z" fill="#93EBCE"/>
<path d="M19.4813 52.6977C19.4813 47.3181 23.8424 42.957 29.222 42.957H177.341C182.72 42.957 187.081 47.3181 187.081 52.6977V72.179C187.081 77.5586 182.72 81.9196 177.341 81.9196H29.222C23.8424 81.9196 19.4813 77.5586 19.4813 72.179V52.6977Z" fill="#059669" fill-opacity="0.3"/>
<g clip-path="url(#clip3_1142_3269)">
<path d="M38.9629 70.5547V55.9438C38.9629 55.5132 39.1339 55.1003 39.4384 54.7958C39.7428 54.4914 40.1558 54.3203 40.5863 54.3203H47.0801C47.5107 54.3203 47.9236 54.4914 48.228 54.7958C48.5325 55.1003 48.7035 55.5132 48.7035 55.9438V70.5547H38.9629Z" stroke="white" stroke-width="2.43516" stroke-linecap="round" stroke-linejoin="round"/>
<path d="M38.9665 62.4375H37.343C36.9125 62.4375 36.4996 62.6085 36.1951 62.913C35.8906 63.2174 35.7196 63.6304 35.7196 64.0609V68.9313C35.7196 69.3618 35.8906 69.7748 36.1951 70.0792C36.4996 70.3837 36.9125 70.5547 37.343 70.5547H38.9665" stroke="white" stroke-width="2.43516" stroke-linecap="round" stroke-linejoin="round"/>
<path d="M48.704 60H50.3274C50.758 60 51.1709 60.171 51.4754 60.4755C51.7798 60.7799 51.9509 61.1929 51.9509 61.6234V68.9289C51.9509 69.3595 51.7798 69.7724 51.4754 70.0769C51.1709 70.3813 50.758 70.5524 50.3274 70.5524H48.704" stroke="white" stroke-width="2.43516" stroke-linecap="round" stroke-linejoin="round"/>
<path d="M42.2069 57.5664H45.4538" stroke="white" stroke-width="2.43516" stroke-linecap="round" stroke-linejoin="round"/>
<path d="M42.2069 60.8125H45.4538" stroke="white" stroke-width="2.43516" stroke-linecap="round" stroke-linejoin="round"/>
<path d="M42.2069 64.0625H45.4538" stroke="white" stroke-width="2.43516" stroke-linecap="round" stroke-linejoin="round"/>
<path d="M42.2069 67.3047H45.4538" stroke="white" stroke-width="2.43516" stroke-linecap="round" stroke-linejoin="round"/>
</g>
<path d="M87.2531 67.2383V56.7007H94.3537V58.5376H89.481V61.0485H93.9883V62.8853H89.481V65.4014H94.3742V67.2383H87.2531ZM96.1249 67.2383V56.7007H98.3168V60.6626H98.3837C98.4798 60.4499 98.6187 60.2338 98.8005 60.0143C98.9857 59.7913 99.2258 59.6061 99.5208 59.4586C99.8193 59.3076 100.19 59.2322 100.632 59.2322C101.208 59.2322 101.74 59.3831 102.227 59.685C102.714 59.9834 103.104 60.4345 103.395 61.0382C103.687 61.6385 103.833 62.3914 103.833 63.297C103.833 64.1785 103.69 64.9229 103.406 65.53C103.124 66.1338 102.74 66.5917 102.253 66.9038C101.769 67.2126 101.227 67.3669 100.627 67.3669C100.202 67.3669 99.8398 67.2966 99.5414 67.156C99.2464 67.0153 99.0046 66.8387 98.8159 66.626C98.6273 66.4099 98.4832 66.1921 98.3837 65.9725H98.286V67.2383H96.1249ZM98.2705 63.2867C98.2705 63.7566 98.3357 64.1665 98.466 64.5164C98.5964 64.8663 98.7851 65.139 99.032 65.3345C99.279 65.5266 99.5791 65.6227 99.9325 65.6227C100.289 65.6227 100.591 65.5249 100.838 65.3294C101.085 65.1304 101.272 64.856 101.399 64.5061C101.529 64.1528 101.594 63.7463 101.594 63.2867C101.594 62.8305 101.531 62.4291 101.404 62.0827C101.277 61.7362 101.09 61.4652 100.843 61.2697C100.596 61.0742 100.293 60.9764 99.9325 60.9764C99.5757 60.9764 99.2739 61.0708 99.0269 61.2594C98.7833 61.4481 98.5964 61.7156 98.466 62.0621C98.3357 62.4085 98.2705 62.8167 98.2705 63.2867ZM105.295 67.2383V59.3351H107.487V67.2383H105.295ZM106.396 58.3163C106.07 58.3163 105.791 58.2083 105.558 57.9921C105.328 57.7726 105.213 57.5102 105.213 57.2049C105.213 56.9031 105.328 56.6441 105.558 56.428C105.791 56.2084 106.07 56.0987 106.396 56.0987C106.722 56.0987 107 56.2084 107.23 56.428C107.463 56.6441 107.58 56.9031 107.58 57.2049C107.58 57.5102 107.463 57.7726 107.23 57.9921C107 58.2083 106.722 58.3163 106.396 58.3163ZM109.243 67.2383V59.3351H111.368V60.714H111.45C111.594 60.2235 111.836 59.853 112.176 59.6026C112.515 59.3488 112.906 59.2219 113.349 59.2219C113.459 59.2219 113.577 59.2287 113.704 59.2425C113.831 59.2562 113.942 59.275 114.038 59.2991V61.244C113.935 61.2131 113.793 61.1857 113.611 61.1617C113.429 61.1377 113.263 61.1256 113.112 61.1256C112.79 61.1256 112.502 61.196 112.248 61.3366C111.997 61.4738 111.798 61.6659 111.651 61.9129C111.507 62.1599 111.435 62.4446 111.435 62.767V67.2383H109.243ZM115.172 67.2383V59.3351H117.297V60.714H117.379C117.523 60.2235 117.765 59.853 118.104 59.6026C118.444 59.3488 118.835 59.2219 119.278 59.2219C119.387 59.2219 119.506 59.2287 119.633 59.2425C119.76 59.2562 119.871 59.275 119.967 59.2991V61.244C119.864 61.2131 119.722 61.1857 119.54 61.1617C119.358 61.1377 119.192 61.1256 119.041 61.1256C118.718 61.1256 118.43 61.196 118.176 61.3366C117.926 61.4738 117.727 61.6659 117.58 61.9129C117.436 62.1599 117.364 62.4446 117.364 62.767V67.2383H115.172Z" fill="white"/>
<path d="M157.857 60L162.728 64.8703L167.598 60" stroke="white" stroke-width="2.43516" stroke-linecap="round" stroke-linejoin="round"/>
<path d="M24.0299 105.605V106.634H19.9342V105.605H24.0299ZM21.1279 103.711H22.3422V111.244C22.3422 111.587 22.392 111.844 22.4915 112.016C22.5944 112.184 22.7247 112.297 22.8825 112.355C23.0437 112.41 23.2135 112.438 23.3919 112.438C23.5257 112.438 23.6354 112.431 23.7212 112.417C23.8069 112.4 23.8755 112.386 23.927 112.376L24.174 113.467C24.0916 113.498 23.9767 113.528 23.8292 113.559C23.6817 113.594 23.4948 113.611 23.2684 113.611C22.9254 113.611 22.5892 113.537 22.2599 113.389C21.934 113.242 21.6631 113.017 21.447 112.715C21.2343 112.414 21.1279 112.033 21.1279 111.573V103.711ZM28.9823 113.672C28.2688 113.672 27.6428 113.503 27.1042 113.163C26.5691 112.823 26.1506 112.348 25.8488 111.738C25.5503 111.127 25.4011 110.414 25.4011 109.597C25.4011 108.774 25.5503 108.055 25.8488 107.441C26.1506 106.827 26.5691 106.351 27.1042 106.011C27.6428 105.671 28.2688 105.502 28.9823 105.502C29.6958 105.502 30.3201 105.671 30.8552 106.011C31.3937 106.351 31.8122 106.827 32.1106 107.441C32.4125 108.055 32.5634 108.774 32.5634 109.597C32.5634 110.414 32.4125 111.127 32.1106 111.738C31.8122 112.348 31.3937 112.823 30.8552 113.163C30.3201 113.503 29.6958 113.672 28.9823 113.672ZM28.9823 112.582C29.5242 112.582 29.9702 112.443 30.3201 112.165C30.6699 111.887 30.9289 111.522 31.097 111.069C31.2651 110.616 31.3491 110.126 31.3491 109.597C31.3491 109.069 31.2651 108.577 31.097 108.121C30.9289 107.664 30.6699 107.296 30.3201 107.014C29.9702 106.733 29.5242 106.593 28.9823 106.593C28.4403 106.593 27.9944 106.733 27.6445 107.014C27.2946 107.296 27.0356 107.664 26.8675 108.121C26.6995 108.577 26.6154 109.069 26.6154 109.597C26.6154 110.126 26.6995 110.616 26.8675 111.069C27.0356 111.522 27.2946 111.887 27.6445 112.165C27.9944 112.443 28.4403 112.582 28.9823 112.582ZM37.8541 105.605V106.634H33.7584V105.605H37.8541ZM34.9521 103.711H36.1664V111.244C36.1664 111.587 36.2162 111.844 36.3156 112.016C36.4185 112.184 36.5489 112.297 36.7067 112.355C36.8679 112.41 37.0377 112.438 37.2161 112.438C37.3498 112.438 37.4596 112.431 37.5454 112.417C37.6311 112.4 37.6997 112.386 37.7512 112.376L37.9981 113.467C37.9158 113.498 37.8009 113.528 37.6534 113.559C37.5059 113.594 37.319 113.611 37.0926 113.611C36.7496 113.611 36.4134 113.537 36.0841 113.389C35.7582 113.242 35.4872 113.017 35.2711 112.715C35.0585 112.414 34.9521 112.033 34.9521 111.573V103.711ZM42.0063 113.693C41.5055 113.693 41.051 113.599 40.6428 113.41C40.2346 113.218 39.9105 112.942 39.6704 112.582C39.4303 112.218 39.3102 111.779 39.3102 111.264C39.3102 110.812 39.3994 110.445 39.5778 110.163C39.7561 109.879 39.9945 109.656 40.293 109.494C40.5914 109.333 40.9207 109.213 41.2809 109.134C41.6445 109.052 42.0098 108.987 42.3768 108.939C42.857 108.877 43.2464 108.831 43.5448 108.8C43.8467 108.766 44.0662 108.709 44.2034 108.63C44.344 108.551 44.4144 108.414 44.4144 108.218V108.177C44.4144 107.67 44.2754 107.275 43.9976 106.994C43.7232 106.713 43.3064 106.572 42.7473 106.572C42.1676 106.572 41.7131 106.699 41.3838 106.953C41.0545 107.207 40.8229 107.478 40.6891 107.766L39.5366 107.354C39.7424 106.874 40.0168 106.5 40.3598 106.232C40.7063 105.961 41.0836 105.773 41.4918 105.666C41.9034 105.557 42.3082 105.502 42.7061 105.502C42.9599 105.502 43.2515 105.533 43.5808 105.594C43.9135 105.653 44.2343 105.774 44.543 105.96C44.8551 106.145 45.1141 106.424 45.3199 106.798C45.5257 107.172 45.6286 107.673 45.6286 108.301V113.508H44.4144V112.438H44.3526C44.2703 112.609 44.1331 112.793 43.941 112.988C43.7489 113.184 43.4933 113.35 43.1743 113.487C42.8553 113.624 42.466 113.693 42.0063 113.693ZM42.1916 112.602C42.6718 112.602 43.0766 112.508 43.4059 112.319C43.7386 112.131 43.989 111.887 44.1571 111.589C44.3286 111.29 44.4144 110.976 44.4144 110.647V109.536C44.3629 109.597 44.2497 109.654 44.0748 109.705C43.9033 109.753 43.7043 109.796 43.4779 109.834C43.2549 109.868 43.0371 109.899 42.8245 109.927C42.6152 109.951 42.4454 109.971 42.3151 109.988C41.9995 110.03 41.7045 110.096 41.4301 110.189C41.1591 110.278 40.9396 110.414 40.7715 110.596C40.6068 110.774 40.5245 111.017 40.5245 111.326C40.5245 111.748 40.6806 112.067 40.9927 112.283C41.3083 112.496 41.7079 112.602 42.1916 112.602ZM49.0593 102.97V113.508H47.845V102.97H49.0593ZM55.5231 113.508V102.97H56.7374V106.86H56.8403C56.9295 106.723 57.053 106.548 57.2108 106.335C57.372 106.119 57.6018 105.927 57.9002 105.759C58.2021 105.587 58.6103 105.502 59.1248 105.502C59.7903 105.502 60.3768 105.668 60.8845 106.001C61.3922 106.334 61.7884 106.805 62.0731 107.416C62.3578 108.026 62.5001 108.747 62.5001 109.577C62.5001 110.414 62.3578 111.139 62.0731 111.753C61.7884 112.364 61.3939 112.837 60.8897 113.173C60.3854 113.506 59.804 113.672 59.1454 113.672C58.6377 113.672 58.2312 113.588 57.926 113.42C57.6207 113.249 57.3857 113.055 57.221 112.839C57.0564 112.619 56.9295 112.438 56.8403 112.294H56.6962V113.508H55.5231ZM56.7168 109.556C56.7168 110.153 56.8043 110.68 56.9792 111.136C57.1542 111.589 57.4097 111.944 57.7459 112.201C58.082 112.455 58.4937 112.582 58.9807 112.582C59.4884 112.582 59.912 112.448 60.2516 112.18C60.5947 111.909 60.8519 111.546 61.0234 111.09C61.1984 110.63 61.2858 110.119 61.2858 109.556C61.2858 109.001 61.2001 108.5 61.0286 108.054C60.8605 107.604 60.6049 107.249 60.2619 106.989C59.9223 106.725 59.4953 106.593 58.9807 106.593C58.4868 106.593 58.0717 106.718 57.7356 106.968C57.3994 107.215 57.1456 107.562 56.9741 108.007C56.8026 108.45 56.7168 108.966 56.7168 109.556ZM66.6833 113.693C66.1825 113.693 65.728 113.599 65.3198 113.41C64.9116 113.218 64.5874 112.942 64.3473 112.582C64.1072 112.218 63.9871 111.779 63.9871 111.264C63.9871 110.812 64.0763 110.445 64.2547 110.163C64.4331 109.879 64.6715 109.656 64.9699 109.494C65.2683 109.333 65.5976 109.213 65.9578 109.134C66.3214 109.052 66.6867 108.987 67.0537 108.939C67.534 108.877 67.9233 108.831 68.2217 108.8C68.5236 108.766 68.7431 108.709 68.8803 108.63C69.021 108.551 69.0913 108.414 69.0913 108.218V108.177C69.0913 107.67 68.9524 107.275 68.6745 106.994C68.4001 106.713 67.9833 106.572 67.4242 106.572C66.8445 106.572 66.39 106.699 66.0607 106.953C65.7314 107.207 65.4999 107.478 65.3661 107.766L64.2135 107.354C64.4193 106.874 64.6938 106.5 65.0368 106.232C65.3832 105.961 65.7606 105.773 66.1687 105.666C66.5804 105.557 66.9851 105.502 67.383 105.502C67.6369 105.502 67.9284 105.533 68.2577 105.594C68.5905 105.653 68.9112 105.774 69.2199 105.96C69.5321 106.145 69.791 106.424 69.9969 106.798C70.2027 107.172 70.3056 107.673 70.3056 108.301V113.508H69.0913V112.438H69.0295C68.9472 112.609 68.81 112.793 68.6179 112.988C68.4258 113.184 68.1703 113.35 67.8513 113.487C67.5323 113.624 67.1429 113.693 66.6833 113.693ZM66.8685 112.602C67.3487 112.602 67.7535 112.508 68.0828 112.319C68.4155 112.131 68.6659 111.887 68.834 111.589C69.0055 111.29 69.0913 110.976 69.0913 110.647V109.536C69.0398 109.597 68.9266 109.654 68.7517 109.705C68.5802 109.753 68.3812 109.796 68.1548 109.834C67.9319 109.868 67.7141 109.899 67.5014 109.927C67.2921 109.951 67.1223 109.971 66.992 109.988C66.6764 110.03 66.3814 110.096 66.107 110.189C65.836 110.278 65.6165 110.414 65.4484 110.596C65.2838 110.774 65.2014 111.017 65.2014 111.326C65.2014 111.748 65.3575 112.067 65.6697 112.283C65.9852 112.496 66.3849 112.602 66.8685 112.602ZM73.7362 102.97V113.508H72.5219V102.97H73.7362ZM78.286 113.693C77.7852 113.693 77.3306 113.599 76.9225 113.41C76.5143 113.218 76.1901 112.942 75.95 112.582C75.7099 112.218 75.5898 111.779 75.5898 111.264C75.5898 110.812 75.679 110.445 75.8574 110.163C76.0357 109.879 76.2741 109.656 76.5726 109.494C76.871 109.333 77.2003 109.213 77.5605 109.134C77.9241 109.052 78.2894 108.987 78.6564 108.939C79.1367 108.877 79.526 108.831 79.8244 108.8C80.1263 108.766 80.3458 108.709 80.483 108.63C80.6237 108.551 80.694 108.414 80.694 108.218V108.177C80.694 107.67 80.555 107.275 80.2772 106.994C80.0028 106.713 79.586 106.572 79.0269 106.572C78.4472 106.572 77.9927 106.699 77.6634 106.953C77.3341 107.207 77.1025 107.478 76.9688 107.766L75.8162 107.354C76.022 106.874 76.2964 106.5 76.6395 106.232C76.9859 105.961 77.3632 105.773 77.7714 105.666C78.1831 105.557 78.5878 105.502 78.9857 105.502C79.2396 105.502 79.5311 105.533 79.8604 105.594C80.1932 105.653 80.5139 105.774 80.8226 105.96C81.1348 106.145 81.3937 106.424 81.5995 106.798C81.8054 107.172 81.9083 107.673 81.9083 108.301V113.508H80.694V112.438H80.6322C80.5499 112.609 80.4127 112.793 80.2206 112.988C80.0285 113.184 79.773 113.35 79.4539 113.487C79.1349 113.624 78.7456 113.693 78.286 113.693ZM78.4712 112.602C78.9514 112.602 79.3562 112.508 79.6855 112.319C80.0182 112.131 80.2686 111.887 80.4367 111.589C80.6082 111.29 80.694 110.976 80.694 110.647V109.536C80.6425 109.597 80.5293 109.654 80.3544 109.705C80.1829 109.753 79.9839 109.796 79.7575 109.834C79.5346 109.868 79.3167 109.899 79.1041 109.927C78.8948 109.951 78.725 109.971 78.5947 109.988C78.2791 110.03 77.9841 110.096 77.7097 110.189C77.4387 110.278 77.2192 110.414 77.0511 110.596C76.8864 110.774 76.8041 111.017 76.8041 111.326C76.8041 111.748 76.9602 112.067 77.2723 112.283C77.5879 112.496 77.9875 112.602 78.4712 112.602ZM85.3389 108.754V113.508H84.1246V105.605H85.2977V106.839H85.4006C85.5859 106.438 85.8672 106.116 86.2445 105.872C86.6218 105.625 87.1089 105.502 87.7057 105.502C88.2409 105.502 88.7091 105.611 89.1104 105.831C89.5118 106.047 89.8239 106.376 90.0469 106.819C90.2698 107.258 90.3813 107.814 90.3813 108.486V113.508H89.167V108.568C89.167 107.947 89.0058 107.464 88.6834 107.117C88.3609 106.767 87.9184 106.593 87.3559 106.593C86.9683 106.593 86.6218 106.677 86.3165 106.845C86.0147 107.013 85.7763 107.258 85.6013 107.58C85.4264 107.903 85.3389 108.294 85.3389 108.754ZM95.8109 113.672C95.07 113.672 94.432 113.498 93.8969 113.148C93.3617 112.798 92.9501 112.316 92.662 111.702C92.3738 111.088 92.2298 110.386 92.2298 109.597C92.2298 108.795 92.3773 108.086 92.6723 107.472C92.9707 106.855 93.3858 106.373 93.9174 106.027C94.4525 105.677 95.0768 105.502 95.7903 105.502C96.346 105.502 96.8468 105.605 97.2928 105.81C97.7387 106.016 98.104 106.304 98.3887 106.675C98.6734 107.045 98.8501 107.478 98.9187 107.971H97.7044C97.6118 107.611 97.406 107.292 97.0869 107.014C96.7714 106.733 96.346 106.593 95.8109 106.593C95.3375 106.593 94.9225 106.716 94.5657 106.963C94.2124 107.207 93.9363 107.551 93.7373 107.997C93.5418 108.44 93.4441 108.959 93.4441 109.556C93.4441 110.167 93.5401 110.698 93.7322 111.151C93.9277 111.604 94.2021 111.956 94.5555 112.206C94.9122 112.456 95.3307 112.582 95.8109 112.582C96.1265 112.582 96.4129 112.527 96.6702 112.417C96.9274 112.307 97.1453 112.149 97.3236 111.944C97.502 111.738 97.6289 111.491 97.7044 111.203H98.9187C98.8501 111.669 98.6803 112.089 98.4093 112.463C98.1417 112.834 97.7867 113.129 97.3442 113.348C96.9051 113.564 96.394 113.672 95.8109 113.672ZM104.007 113.672C103.246 113.672 102.589 113.504 102.037 113.168C101.488 112.829 101.064 112.355 100.766 111.748C100.471 111.138 100.323 110.427 100.323 109.618C100.323 108.808 100.471 108.095 100.766 107.478C101.064 106.857 101.479 106.373 102.011 106.027C102.546 105.677 103.17 105.502 103.884 105.502C104.296 105.502 104.702 105.57 105.103 105.708C105.505 105.845 105.87 106.068 106.199 106.376C106.529 106.682 106.791 107.086 106.987 107.591C107.182 108.095 107.28 108.716 107.28 109.453V109.968H101.188V108.918H106.045C106.045 108.472 105.956 108.074 105.777 107.724C105.602 107.375 105.352 107.098 105.026 106.896C104.704 106.694 104.323 106.593 103.884 106.593C103.4 106.593 102.982 106.713 102.628 106.953C102.279 107.189 102.009 107.498 101.821 107.879C101.632 108.26 101.538 108.668 101.538 109.103V109.803C101.538 110.4 101.641 110.906 101.846 111.321C102.056 111.733 102.345 112.047 102.716 112.263C103.086 112.475 103.517 112.582 104.007 112.582C104.326 112.582 104.615 112.537 104.872 112.448C105.133 112.355 105.357 112.218 105.546 112.036C105.735 111.851 105.88 111.621 105.983 111.347L107.156 111.676C107.033 112.074 106.825 112.424 106.534 112.726C106.242 113.024 105.882 113.257 105.453 113.425C105.024 113.59 104.543 113.672 104.007 113.672Z" fill="white"/>
<path d="M26.9082 157.012V134.431H28.3548V157.012H26.9082ZM31.0803 141.655C30.998 140.885 30.6511 140.285 30.0395 139.856C29.4338 139.427 28.6459 139.212 27.6756 139.212C26.9935 139.212 26.4084 139.315 25.9203 139.521C25.4322 139.727 25.0588 140.006 24.8001 140.359C24.5414 140.712 24.4091 141.114 24.4032 141.567C24.4032 141.944 24.4885 142.27 24.659 142.546C24.8354 142.823 25.0735 143.058 25.3734 143.252C25.6733 143.44 26.0056 143.599 26.3702 143.728C26.7347 143.858 27.1023 143.966 27.4727 144.055L29.1663 144.478C29.8484 144.637 30.5041 144.851 31.1333 145.122C31.7683 145.392 32.3358 145.733 32.8356 146.145C33.3413 146.557 33.7412 147.054 34.0352 147.636C34.3292 148.218 34.4762 148.9 34.4762 149.682C34.4762 150.741 34.2057 151.673 33.6648 152.478C33.1238 153.278 32.3417 153.904 31.3185 154.357C30.3012 154.804 29.0693 155.027 27.6227 155.027C26.2173 155.027 24.9971 154.81 23.9622 154.375C22.9331 153.939 22.1275 153.304 21.5453 152.469C20.9691 151.634 20.6574 150.617 20.6104 149.417H23.8298C23.8769 150.047 24.0709 150.57 24.412 150.988C24.7531 151.405 25.197 151.717 25.7439 151.923C26.2967 152.128 26.9141 152.231 27.5962 152.231C28.3077 152.231 28.9311 152.125 29.4662 151.914C30.0072 151.696 30.4306 151.396 30.7363 151.014C31.0421 150.626 31.1979 150.173 31.2038 149.656C31.1979 149.185 31.0598 148.797 30.7893 148.491C30.5188 148.18 30.1395 147.921 29.6514 147.715C29.1692 147.503 28.6047 147.315 27.9579 147.151L25.9027 146.621C24.4149 146.239 23.2389 145.66 22.3745 144.884C21.5159 144.102 21.0867 143.064 21.0867 141.77C21.0867 140.706 21.3748 139.774 21.9511 138.974C22.5332 138.174 23.3241 137.554 24.3238 137.113C25.3235 136.666 26.4554 136.442 27.7197 136.442C29.0016 136.442 30.1248 136.666 31.0892 137.113C32.0594 137.554 32.8209 138.168 33.3737 138.956C33.9264 139.738 34.2116 140.638 34.2293 141.655H31.0803Z" fill="white"/>
<path d="M37.3152 154.754V152.39L43.5866 146.242C44.1864 145.636 44.6862 145.098 45.0861 144.628C45.4859 144.157 45.7858 143.702 45.9858 143.261C46.1857 142.82 46.2857 142.349 46.2857 141.849C46.2857 141.279 46.1563 140.791 45.8976 140.385C45.6388 139.974 45.2831 139.656 44.8303 139.433C44.3775 139.209 43.863 139.097 43.2867 139.097C42.6928 139.097 42.1724 139.221 41.7254 139.468C41.2785 139.709 40.9316 140.053 40.6846 140.5C40.4435 140.947 40.323 141.479 40.323 142.096H37.2093C37.2093 140.95 37.471 139.953 37.9944 139.106C38.5177 138.259 39.2381 137.604 40.1554 137.139C41.0786 136.675 42.1371 136.442 43.3308 136.442C44.5421 136.442 45.6065 136.669 46.5238 137.122C47.4412 137.574 48.1527 138.195 48.6584 138.983C49.17 139.771 49.4258 140.67 49.4258 141.682C49.4258 142.358 49.2964 143.023 49.0377 143.675C48.7789 144.328 48.3232 145.051 47.6705 145.845C47.0237 146.639 46.1151 147.6 44.9449 148.729L41.8313 151.896V152.02H49.6992V154.754H37.3152ZM56.5263 152.284L56.4116 153.254C56.3293 153.995 56.1823 154.748 55.9706 155.512C55.7648 156.283 55.5472 156.991 55.3179 157.638C55.0886 158.285 54.9033 158.794 54.7622 159.164H52.61C52.6923 158.805 52.804 158.317 52.9452 157.7C53.0922 157.083 53.2333 156.389 53.3686 155.618C53.5038 154.848 53.595 154.066 53.642 153.272L53.7037 152.284H56.5263ZM59.7414 151.402V148.8L67.4065 136.689H69.5763V140.394H68.2532L63.0932 148.571V148.712H73.7925V151.402H59.7414ZM68.3591 154.754V150.608L68.3944 149.444V136.689H71.4815V154.754H68.3591ZM82.8909 155.001C81.7148 155.001 80.6623 154.78 79.7332 154.339C78.8041 153.892 78.0661 153.281 77.5192 152.505C76.9782 151.728 76.6901 150.841 76.6548 149.841H79.8302C79.889 150.582 80.2095 151.187 80.7916 151.658C81.3738 152.122 82.0735 152.355 82.8909 152.355C83.5319 152.355 84.1023 152.208 84.6021 151.914C85.1019 151.62 85.4959 151.211 85.784 150.688C86.0722 150.164 86.2133 149.567 86.2074 148.897C86.2133 148.215 86.0692 147.609 85.7752 147.08C85.4812 146.551 85.0784 146.136 84.5668 145.836C84.0552 145.531 83.4672 145.378 82.8027 145.378C82.2617 145.372 81.7295 145.472 81.2062 145.678C80.6828 145.883 80.2683 146.154 79.9625 146.489L77.0076 146.004L77.9514 136.689H88.4302V139.424H80.6593L80.1389 144.213H80.2447C80.5799 143.819 81.0533 143.493 81.6649 143.234C82.2764 142.97 82.9468 142.837 83.6759 142.837C84.7697 142.837 85.7458 143.096 86.6044 143.614C87.4629 144.125 88.1391 144.831 88.6331 145.73C89.127 146.63 89.374 147.659 89.374 148.818C89.374 150.011 89.0976 151.076 88.5449 152.011C87.998 152.94 87.2365 153.672 86.2604 154.207C85.2901 154.736 84.1669 155.001 82.8909 155.001ZM99.006 155.098C97.5536 155.098 96.307 154.73 95.2661 153.995C94.2312 153.254 93.4344 152.187 92.8758 150.793C92.323 149.394 92.0466 147.709 92.0466 145.739C92.0525 143.769 92.3318 142.093 92.8846 140.712C93.4432 139.324 94.24 138.265 95.2749 137.536C96.3158 136.807 97.5595 136.442 99.006 136.442C100.453 136.442 101.696 136.807 102.737 137.536C103.778 138.265 104.575 139.324 105.127 140.712C105.686 142.099 105.965 143.775 105.965 145.739C105.965 147.715 105.686 149.403 105.127 150.802C104.575 152.196 103.778 153.26 102.737 153.995C101.702 154.73 100.458 155.098 99.006 155.098ZM99.006 152.337C100.135 152.337 101.026 151.781 101.679 150.67C102.337 149.553 102.667 147.909 102.667 145.739C102.667 144.305 102.517 143.099 102.217 142.123C101.917 141.147 101.493 140.412 100.947 139.918C100.4 139.418 99.7528 139.168 99.006 139.168C97.8829 139.168 96.995 139.727 96.3422 140.844C95.6895 141.955 95.3602 143.587 95.3543 145.739C95.3485 147.18 95.4925 148.391 95.7865 149.373C96.0864 150.355 96.5098 151.096 97.0567 151.596C97.6036 152.09 98.2534 152.337 99.006 152.337ZM110.195 154.948C109.66 154.948 109.201 154.76 108.819 154.383C108.437 154.007 108.248 153.548 108.254 153.007C108.248 152.478 108.437 152.025 108.819 151.649C109.201 151.273 109.66 151.085 110.195 151.085C110.712 151.085 111.162 151.273 111.544 151.649C111.933 152.025 112.13 152.478 112.135 153.007C112.13 153.366 112.035 153.693 111.853 153.987C111.677 154.281 111.442 154.516 111.148 154.692C110.859 154.863 110.542 154.948 110.195 154.948ZM121.371 155.098C119.918 155.098 118.671 154.73 117.631 153.995C116.596 153.254 115.799 152.187 115.24 150.793C114.687 149.394 114.411 147.709 114.411 145.739C114.417 143.769 114.696 142.093 115.249 140.712C115.808 139.324 116.604 138.265 117.639 137.536C118.68 136.807 119.924 136.442 121.371 136.442C122.817 136.442 124.061 136.807 125.102 137.536C126.142 138.265 126.939 139.324 127.492 140.712C128.051 142.099 128.33 143.775 128.33 145.739C128.33 147.715 128.051 149.403 127.492 150.802C126.939 152.196 126.142 153.26 125.102 153.995C124.067 154.73 122.823 155.098 121.371 155.098ZM121.371 152.337C122.5 152.337 123.39 151.781 124.043 150.67C124.702 149.553 125.031 147.909 125.031 145.739C125.031 144.305 124.881 143.099 124.581 142.123C124.281 141.147 123.858 140.412 123.311 139.918C122.764 139.418 122.117 139.168 121.371 139.168C120.247 139.168 119.359 139.727 118.707 140.844C118.054 141.955 117.725 143.587 117.719 145.739C117.713 147.18 117.857 148.391 118.151 149.373C118.451 150.355 118.874 151.096 119.421 151.596C119.968 152.09 120.618 152.337 121.371 152.337ZM137.938 155.098C136.485 155.098 135.239 154.73 134.198 153.995C133.163 153.254 132.366 152.187 131.807 150.793C131.255 149.394 130.978 147.709 130.978 145.739C130.984 143.769 131.263 142.093 131.816 140.712C132.375 139.324 133.172 138.265 134.207 137.536C135.247 136.807 136.491 136.442 137.938 136.442C139.384 136.442 140.628 136.807 141.669 137.536C142.71 138.265 143.506 139.324 144.059 140.712C144.618 142.099 144.897 143.775 144.897 145.739C144.897 147.715 144.618 149.403 144.059 150.802C143.506 152.196 142.71 153.26 141.669 153.995C140.634 154.73 139.39 155.098 137.938 155.098ZM137.938 152.337C139.067 152.337 139.958 151.781 140.61 150.67C141.269 149.553 141.598 147.909 141.598 145.739C141.598 144.305 141.448 143.099 141.148 142.123C140.848 141.147 140.425 140.412 139.878 139.918C139.331 139.418 138.685 139.168 137.938 139.168C136.815 139.168 135.927 139.727 135.274 140.844C134.621 141.955 134.292 143.587 134.286 145.739C134.28 147.18 134.424 148.391 134.718 149.373C135.018 150.355 135.441 151.096 135.988 151.596C136.535 152.09 137.185 152.337 137.938 152.337Z" fill="white"/>
<path d="M317.541 23.4759C317.541 -19.5609 352.429 -54.4492 395.466 -54.4492C438.503 -54.4492 473.391 -19.5609 473.391 23.4759C473.391 66.5128 438.503 101.401 395.466 101.401C352.429 101.401 317.541 66.5128 317.541 23.4759Z" fill="#34D399"/>
<path d="M336.882 184.452C336.882 152.174 363.048 126.008 395.326 126.008C427.604 126.008 453.77 152.174 453.77 184.452C453.77 216.729 427.604 242.896 395.326 242.896C363.048 242.896 336.882 216.729 336.882 184.452Z" fill="#C5ECDF"/>
</g>
<g clip-path="url(#clip4_1142_3269)">
<path d="M0 20.0711C0 9.31191 8.72207 0.589844 19.4813 0.589844H375.989C386.748 0.589844 395.47 9.31191 395.47 20.0711V141.829C395.47 152.588 386.748 161.31 375.989 161.31H19.4813C8.7221 161.31 0 152.588 0 141.829V20.0711Z" fill="#10B981"/>
<path d="M19.4813 29.811C19.4813 24.4314 23.8424 20.0703 29.222 20.0703H177.341C182.72 20.0703 187.081 24.4313 187.081 29.811V49.2922C187.081 54.6718 182.72 59.0329 177.341 59.0329H29.222C23.8424 59.0329 19.4813 54.6719 19.4813 49.2922V29.811Z" fill="#059669" fill-opacity="0.3"/>
<g clip-path="url(#clip5_1142_3269)">
<path d="M38.9629 47.6719V33.0609C38.9629 32.6304 39.1339 32.2174 39.4384 31.913C39.7428 31.6085 40.1558 31.4375 40.5863 31.4375H47.0801C47.5107 31.4375 47.9236 31.6085 48.228 31.913C48.5325 32.2174 48.7035 32.6304 48.7035 33.0609V47.6719H38.9629Z" stroke="white" stroke-width="2.43516" stroke-linecap="round" stroke-linejoin="round"/>
<path d="M38.9665 39.5547H37.343C36.9125 39.5547 36.4996 39.7257 36.1951 40.0302C35.8906 40.3346 35.7196 40.7476 35.7196 41.1781V46.0484C35.7196 46.479 35.8906 46.8919 36.1951 47.1964C36.4996 47.5008 36.9125 47.6719 37.343 47.6719H38.9665" stroke="white" stroke-width="2.43516" stroke-linecap="round" stroke-linejoin="round"/>
<path d="M48.704 37.1172H50.3274C50.758 37.1172 51.1709 37.2882 51.4754 37.5927C51.7798 37.8971 51.9509 38.3101 51.9509 38.7406V46.0461C51.9509 46.4767 51.7798 46.8896 51.4754 47.1941C51.1709 47.4985 50.758 47.6696 50.3274 47.6696H48.704" stroke="white" stroke-width="2.43516" stroke-linecap="round" stroke-linejoin="round"/>
<path d="M42.2069 34.6836H45.4538" stroke="white" stroke-width="2.43516" stroke-linecap="round" stroke-linejoin="round"/>
<path d="M42.2069 37.9297H45.4538" stroke="white" stroke-width="2.43516" stroke-linecap="round" stroke-linejoin="round"/>
<path d="M42.2069 41.1797H45.4538" stroke="white" stroke-width="2.43516" stroke-linecap="round" stroke-linejoin="round"/>
<path d="M42.2069 44.4219H45.4538" stroke="white" stroke-width="2.43516" stroke-linecap="round" stroke-linejoin="round"/>
</g>
<path d="M87.2531 44.3516V33.814H94.3537V35.6508H89.481V38.1617H93.9883V39.9986H89.481V42.5147H94.3742V44.3516H87.2531ZM96.1249 44.3516V33.814H98.3168V37.7758H98.3837C98.4798 37.5632 98.6187 37.3471 98.8005 37.1275C98.9857 36.9046 99.2258 36.7193 99.5208 36.5718C99.8193 36.4209 100.19 36.3455 100.632 36.3455C101.208 36.3455 101.74 36.4964 102.227 36.7982C102.714 37.0967 103.104 37.5477 103.395 38.1515C103.687 38.7517 103.833 39.5047 103.833 40.4103C103.833 41.2918 103.69 42.0362 103.406 42.6433C103.124 43.247 102.74 43.705 102.253 44.0171C101.769 44.3258 101.227 44.4802 100.627 44.4802C100.202 44.4802 99.8398 44.4099 99.5414 44.2692C99.2464 44.1286 99.0046 43.9519 98.8159 43.7393C98.6273 43.5232 98.4832 43.3053 98.3837 43.0858H98.286V44.3516H96.1249ZM98.2705 40.4C98.2705 40.8699 98.3357 41.2798 98.466 41.6297C98.5964 41.9796 98.7851 42.2523 99.032 42.4478C99.279 42.6399 99.5791 42.7359 99.9325 42.7359C100.289 42.7359 100.591 42.6382 100.838 42.4427C101.085 42.2437 101.272 41.9693 101.399 41.6194C101.529 41.2661 101.594 40.8596 101.594 40.4C101.594 39.9437 101.531 39.5424 101.404 39.196C101.277 38.8495 101.09 38.5785 100.843 38.383C100.596 38.1875 100.293 38.0897 99.9325 38.0897C99.5757 38.0897 99.2739 38.184 99.0269 38.3727C98.7833 38.5614 98.5964 38.8289 98.466 39.1754C98.3357 39.5218 98.2705 39.93 98.2705 40.4ZM105.295 44.3516V36.4484H107.487V44.3516H105.295ZM106.396 35.4296C106.07 35.4296 105.791 35.3215 105.558 35.1054C105.328 34.8859 105.213 34.6235 105.213 34.3182C105.213 34.0163 105.328 33.7574 105.558 33.5413C105.791 33.3217 106.07 33.212 106.396 33.212C106.722 33.212 107 33.3217 107.23 33.5413C107.463 33.7574 107.58 34.0163 107.58 34.3182C107.58 34.6235 107.463 34.8859 107.23 35.1054C107 35.3215 106.722 35.4296 106.396 35.4296ZM109.243 44.3516V36.4484H111.368V37.8273H111.45C111.594 37.3368 111.836 36.9663 112.176 36.7159C112.515 36.4621 112.906 36.3352 113.349 36.3352C113.459 36.3352 113.577 36.342 113.704 36.3557C113.831 36.3695 113.942 36.3883 114.038 36.4123V38.3573C113.935 38.3264 113.793 38.299 113.611 38.2749C113.429 38.2509 113.263 38.2389 113.112 38.2389C112.79 38.2389 112.502 38.3092 112.248 38.4499C111.997 38.5871 111.798 38.7792 111.651 39.0262C111.507 39.2731 111.435 39.5578 111.435 39.8803V44.3516H109.243ZM115.172 44.3516V36.4484H117.297V37.8273H117.379C117.523 37.3368 117.765 36.9663 118.104 36.7159C118.444 36.4621 118.835 36.3352 119.278 36.3352C119.387 36.3352 119.506 36.342 119.633 36.3557C119.76 36.3695 119.871 36.3883 119.967 36.4123V38.3573C119.864 38.3264 119.722 38.299 119.54 38.2749C119.358 38.2509 119.192 38.2389 119.041 38.2389C118.718 38.2389 118.43 38.3092 118.176 38.4499C117.926 38.5871 117.727 38.7792 117.58 39.0262C117.436 39.2731 117.364 39.5578 117.364 39.8803V44.3516H115.172Z" fill="white"/>
<path d="M157.857 37.1172L162.728 41.9875L167.598 37.1172" stroke="white" stroke-width="2.43516" stroke-linecap="round" stroke-linejoin="round"/>
<path d="M24.0299 82.7179V83.747H19.9342V82.7179H24.0299ZM21.1279 80.8244H22.3422V88.3572C22.3422 88.7002 22.392 88.9574 22.4915 89.129C22.5944 89.297 22.7247 89.4102 22.8825 89.4685C23.0437 89.5234 23.2135 89.5509 23.3919 89.5509C23.5257 89.5509 23.6354 89.544 23.7212 89.5303C23.8069 89.5131 23.8755 89.4994 23.927 89.4891L24.174 90.5799C24.0916 90.6108 23.9767 90.6417 23.8292 90.6725C23.6817 90.7068 23.4948 90.724 23.2684 90.724C22.9254 90.724 22.5892 90.6503 22.2599 90.5028C21.934 90.3553 21.6631 90.1306 21.447 89.8287C21.2343 89.5269 21.1279 89.1461 21.1279 88.6865V80.8244ZM28.9823 90.7857C28.2688 90.7857 27.6428 90.6159 27.1042 90.2764C26.5691 89.9368 26.1506 89.4617 25.8488 88.8511C25.5503 88.2405 25.4011 87.527 25.4011 86.7107C25.4011 85.8874 25.5503 85.1688 25.8488 84.5548C26.1506 83.9408 26.5691 83.464 27.1042 83.1244C27.6428 82.7848 28.2688 82.615 28.9823 82.615C29.6958 82.615 30.3201 82.7848 30.8552 83.1244C31.3937 83.464 31.8122 83.9408 32.1106 84.5548C32.4125 85.1688 32.5634 85.8874 32.5634 86.7107C32.5634 87.527 32.4125 88.2405 32.1106 88.8511C31.8122 89.4617 31.3937 89.9368 30.8552 90.2764C30.3201 90.6159 29.6958 90.7857 28.9823 90.7857ZM28.9823 89.6949C29.5242 89.6949 29.9702 89.556 30.3201 89.2782C30.6699 89.0003 30.9289 88.635 31.097 88.1822C31.2651 87.7294 31.3491 87.2389 31.3491 86.7107C31.3491 86.1824 31.2651 85.6902 31.097 85.2339C30.9289 84.7777 30.6699 84.409 30.3201 84.1277C29.9702 83.8464 29.5242 83.7058 28.9823 83.7058C28.4403 83.7058 27.9944 83.8464 27.6445 84.1277C27.2946 84.409 27.0356 84.7777 26.8675 85.2339C26.6995 85.6902 26.6154 86.1824 26.6154 86.7107C26.6154 87.2389 26.6995 87.7294 26.8675 88.1822C27.0356 88.635 27.2946 89.0003 27.6445 89.2782C27.9944 89.556 28.4403 89.6949 28.9823 89.6949ZM37.8541 82.7179V83.747H33.7584V82.7179H37.8541ZM34.9521 80.8244H36.1664V88.3572C36.1664 88.7002 36.2162 88.9574 36.3156 89.129C36.4185 89.297 36.5489 89.4102 36.7067 89.4685C36.8679 89.5234 37.0377 89.5509 37.2161 89.5509C37.3498 89.5509 37.4596 89.544 37.5454 89.5303C37.6311 89.5131 37.6997 89.4994 37.7512 89.4891L37.9981 90.5799C37.9158 90.6108 37.8009 90.6417 37.6534 90.6725C37.5059 90.7068 37.319 90.724 37.0926 90.724C36.7496 90.724 36.4134 90.6503 36.0841 90.5028C35.7582 90.3553 35.4872 90.1306 35.2711 89.8287C35.0585 89.5269 34.9521 89.1461 34.9521 88.6865V80.8244ZM42.0063 90.8063C41.5055 90.8063 41.051 90.712 40.6428 90.5233C40.2346 90.3312 39.9105 90.0551 39.6704 89.6949C39.4303 89.3313 39.3102 88.8923 39.3102 88.3777C39.3102 87.9249 39.3994 87.5579 39.5778 87.2766C39.7561 86.9919 39.9945 86.769 40.293 86.6077C40.5914 86.4465 40.9207 86.3265 41.2809 86.2476C41.6445 86.1653 42.0098 86.1001 42.3768 86.0521C42.857 85.9903 43.2464 85.944 43.5448 85.9131C43.8467 85.8788 44.0662 85.8222 44.2034 85.7433C44.344 85.6644 44.4144 85.5272 44.4144 85.3317V85.2905C44.4144 84.7829 44.2754 84.3884 43.9976 84.1071C43.7232 83.8258 43.3064 83.6852 42.7473 83.6852C42.1676 83.6852 41.7131 83.8121 41.3838 84.066C41.0545 84.3198 40.8229 84.5908 40.6891 84.8789L39.5366 84.4673C39.7424 83.9871 40.0168 83.6132 40.3598 83.3456C40.7063 83.0746 41.0836 82.886 41.4918 82.7796C41.9034 82.6699 42.3082 82.615 42.7061 82.615C42.9599 82.615 43.2515 82.6459 43.5808 82.7076C43.9135 82.7659 44.2343 82.8877 44.543 83.0729C44.8551 83.2581 45.1141 83.5377 45.3199 83.9116C45.5257 84.2855 45.6286 84.7863 45.6286 85.414V90.6211H44.4144V89.5509H44.3526C44.2703 89.7224 44.1331 89.9059 43.941 90.1014C43.7489 90.2969 43.4933 90.4633 43.1743 90.6005C42.8553 90.7377 42.466 90.8063 42.0063 90.8063ZM42.1916 89.7155C42.6718 89.7155 43.0766 89.6212 43.4059 89.4325C43.7386 89.2439 43.989 89.0003 44.1571 88.7019C44.3286 88.4035 44.4144 88.0896 44.4144 87.7603V86.6489C44.3629 86.7107 44.2497 86.7673 44.0748 86.8187C43.9033 86.8667 43.7043 86.9096 43.4779 86.9473C43.2549 86.9816 43.0371 87.0125 42.8245 87.04C42.6152 87.064 42.4454 87.0845 42.3151 87.1017C41.9995 87.1429 41.7045 87.2097 41.4301 87.3024C41.1591 87.3916 40.9396 87.527 40.7715 87.7088C40.6068 87.8872 40.5245 88.1308 40.5245 88.4395C40.5245 88.8614 40.6806 89.1804 40.9927 89.3965C41.3083 89.6092 41.7079 89.7155 42.1916 89.7155ZM49.0593 80.0835V90.6211H47.845V80.0835H49.0593ZM55.5231 90.6211V80.0835H56.7374V83.9733H56.8403C56.9295 83.8361 57.053 83.6612 57.2108 83.4485C57.372 83.2324 57.6018 83.0403 57.9002 82.8722C58.2021 82.7007 58.6103 82.615 59.1248 82.615C59.7903 82.615 60.3768 82.7813 60.8845 83.1141C61.3922 83.4468 61.7884 83.9185 62.0731 84.529C62.3578 85.1396 62.5001 85.86 62.5001 86.6901C62.5001 87.527 62.3578 88.2525 62.0731 88.8665C61.7884 89.4771 61.3939 89.9505 60.8897 90.2866C60.3854 90.6194 59.804 90.7857 59.1454 90.7857C58.6377 90.7857 58.2312 90.7017 57.926 90.5336C57.6207 90.3621 57.3857 90.1683 57.221 89.9522C57.0564 89.7327 56.9295 89.5509 56.8403 89.4068H56.6962V90.6211H55.5231ZM56.7168 86.6695C56.7168 87.2663 56.8043 87.7929 56.9792 88.2491C57.1542 88.7019 57.4097 89.0569 57.7459 89.3142C58.082 89.568 58.4937 89.6949 58.9807 89.6949C59.4884 89.6949 59.912 89.5612 60.2516 89.2936C60.5947 89.0226 60.8519 88.659 61.0234 88.2028C61.1984 87.7431 61.2858 87.232 61.2858 86.6695C61.2858 86.1138 61.2001 85.613 61.0286 85.1671C60.8605 84.7177 60.6049 84.3627 60.2619 84.102C59.9223 83.8379 59.4953 83.7058 58.9807 83.7058C58.4868 83.7058 58.0717 83.831 57.7356 84.0814C57.3994 84.3284 57.1456 84.6748 56.9741 85.1208C56.8026 85.5632 56.7168 86.0795 56.7168 86.6695ZM66.6833 90.8063C66.1825 90.8063 65.728 90.712 65.3198 90.5233C64.9116 90.3312 64.5874 90.0551 64.3473 89.6949C64.1072 89.3313 63.9871 88.8923 63.9871 88.3777C63.9871 87.9249 64.0763 87.5579 64.2547 87.2766C64.4331 86.9919 64.6715 86.769 64.9699 86.6077C65.2683 86.4465 65.5976 86.3265 65.9578 86.2476C66.3214 86.1653 66.6867 86.1001 67.0537 86.0521C67.534 85.9903 67.9233 85.944 68.2217 85.9131C68.5236 85.8788 68.7431 85.8222 68.8803 85.7433C69.021 85.6644 69.0913 85.5272 69.0913 85.3317V85.2905C69.0913 84.7829 68.9524 84.3884 68.6745 84.1071C68.4001 83.8258 67.9833 83.6852 67.4242 83.6852C66.8445 83.6852 66.39 83.8121 66.0607 84.066C65.7314 84.3198 65.4999 84.5908 65.3661 84.8789L64.2135 84.4673C64.4193 83.9871 64.6938 83.6132 65.0368 83.3456C65.3832 83.0746 65.7606 82.886 66.1687 82.7796C66.5804 82.6699 66.9851 82.615 67.383 82.615C67.6369 82.615 67.9284 82.6459 68.2577 82.7076C68.5905 82.7659 68.9112 82.8877 69.2199 83.0729C69.5321 83.2581 69.791 83.5377 69.9969 83.9116C70.2027 84.2855 70.3056 84.7863 70.3056 85.414V90.6211H69.0913V89.5509H69.0295C68.9472 89.7224 68.81 89.9059 68.6179 90.1014C68.4258 90.2969 68.1703 90.4633 67.8513 90.6005C67.5323 90.7377 67.1429 90.8063 66.6833 90.8063ZM66.8685 89.7155C67.3487 89.7155 67.7535 89.6212 68.0828 89.4325C68.4155 89.2439 68.6659 89.0003 68.834 88.7019C69.0055 88.4035 69.0913 88.0896 69.0913 87.7603V86.6489C69.0398 86.7107 68.9266 86.7673 68.7517 86.8187C68.5802 86.8667 68.3812 86.9096 68.1548 86.9473C67.9319 86.9816 67.7141 87.0125 67.5014 87.04C67.2921 87.064 67.1223 87.0845 66.992 87.1017C66.6764 87.1429 66.3814 87.2097 66.107 87.3024C65.836 87.3916 65.6165 87.527 65.4484 87.7088C65.2838 87.8872 65.2014 88.1308 65.2014 88.4395C65.2014 88.8614 65.3575 89.1804 65.6697 89.3965C65.9852 89.6092 66.3849 89.7155 66.8685 89.7155ZM73.7362 80.0835V90.6211H72.5219V80.0835H73.7362ZM78.286 90.8063C77.7852 90.8063 77.3306 90.712 76.9225 90.5233C76.5143 90.3312 76.1901 90.0551 75.95 89.6949C75.7099 89.3313 75.5898 88.8923 75.5898 88.3777C75.5898 87.9249 75.679 87.5579 75.8574 87.2766C76.0357 86.9919 76.2741 86.769 76.5726 86.6077C76.871 86.4465 77.2003 86.3265 77.5605 86.2476C77.9241 86.1653 78.2894 86.1001 78.6564 86.0521C79.1367 85.9903 79.526 85.944 79.8244 85.9131C80.1263 85.8788 80.3458 85.8222 80.483 85.7433C80.6237 85.6644 80.694 85.5272 80.694 85.3317V85.2905C80.694 84.7829 80.555 84.3884 80.2772 84.1071C80.0028 83.8258 79.586 83.6852 79.0269 83.6852C78.4472 83.6852 77.9927 83.8121 77.6634 84.066C77.3341 84.3198 77.1025 84.5908 76.9688 84.8789L75.8162 84.4673C76.022 83.9871 76.2964 83.6132 76.6395 83.3456C76.9859 83.0746 77.3632 82.886 77.7714 82.7796C78.1831 82.6699 78.5878 82.615 78.9857 82.615C79.2396 82.615 79.5311 82.6459 79.8604 82.7076C80.1932 82.7659 80.5139 82.8877 80.8226 83.0729C81.1348 83.2581 81.3937 83.5377 81.5995 83.9116C81.8054 84.2855 81.9083 84.7863 81.9083 85.414V90.6211H80.694V89.5509H80.6322C80.5499 89.7224 80.4127 89.9059 80.2206 90.1014C80.0285 90.2969 79.773 90.4633 79.4539 90.6005C79.1349 90.7377 78.7456 90.8063 78.286 90.8063ZM78.4712 89.7155C78.9514 89.7155 79.3562 89.6212 79.6855 89.4325C80.0182 89.2439 80.2686 89.0003 80.4367 88.7019C80.6082 88.4035 80.694 88.0896 80.694 87.7603V86.6489C80.6425 86.7107 80.5293 86.7673 80.3544 86.8187C80.1829 86.8667 79.9839 86.9096 79.7575 86.9473C79.5346 86.9816 79.3167 87.0125 79.1041 87.04C78.8948 87.064 78.725 87.0845 78.5947 87.1017C78.2791 87.1429 77.9841 87.2097 77.7097 87.3024C77.4387 87.3916 77.2192 87.527 77.0511 87.7088C76.8864 87.8872 76.8041 88.1308 76.8041 88.4395C76.8041 88.8614 76.9602 89.1804 77.2723 89.3965C77.5879 89.6092 77.9875 89.7155 78.4712 89.7155ZM85.3389 85.8668V90.6211H84.1246V82.7179H85.2977V83.9528H85.4006C85.5859 83.5514 85.8672 83.229 86.2445 82.9854C86.6218 82.7385 87.1089 82.615 87.7057 82.615C88.2409 82.615 88.7091 82.7248 89.1104 82.9443C89.5118 83.1604 89.8239 83.4897 90.0469 83.9322C90.2698 84.3713 90.3813 84.9269 90.3813 85.5993V90.6211H89.167V85.6816C89.167 85.0607 89.0058 84.5771 88.6834 84.2306C88.3609 83.8807 87.9184 83.7058 87.3559 83.7058C86.9683 83.7058 86.6218 83.7898 86.3165 83.9579C86.0147 84.126 85.7763 84.3713 85.6013 84.6937C85.4264 85.0161 85.3389 85.4072 85.3389 85.8668ZM95.8109 90.7857C95.07 90.7857 94.432 90.6108 93.8969 90.2609C93.3617 89.911 92.9501 89.4291 92.662 88.8151C92.3738 88.2011 92.2298 87.4996 92.2298 86.7107C92.2298 85.908 92.3773 85.1996 92.6723 84.5856C92.9707 83.9682 93.3858 83.4863 93.9174 83.1398C94.4525 82.7899 95.0768 82.615 95.7903 82.615C96.346 82.615 96.8468 82.7179 97.2928 82.9237C97.7387 83.1295 98.104 83.4177 98.3887 83.7881C98.6734 84.1586 98.8501 84.5908 98.9187 85.0847H97.7044C97.6118 84.7246 97.406 84.4056 97.0869 84.1277C96.7714 83.8464 96.346 83.7058 95.8109 83.7058C95.3375 83.7058 94.9225 83.8293 94.5657 84.0763C94.2124 84.3198 93.9363 84.6645 93.7373 85.1105C93.5418 85.553 93.4441 86.0726 93.4441 86.6695C93.4441 87.2801 93.5401 87.8118 93.7322 88.2645C93.9277 88.7173 94.2021 89.0689 94.5555 89.3193C94.9122 89.5697 95.3307 89.6949 95.8109 89.6949C96.1265 89.6949 96.4129 89.6401 96.6702 89.5303C96.9274 89.4205 97.1453 89.2627 97.3236 89.0569C97.502 88.8511 97.6289 88.6041 97.7044 88.316H98.9187C98.8501 88.7825 98.6803 89.2027 98.4093 89.5766C98.1417 89.9471 97.7867 90.2421 97.3442 90.4616C96.9051 90.6777 96.394 90.7857 95.8109 90.7857ZM104.007 90.7857C103.246 90.7857 102.589 90.6177 102.037 90.2815C101.488 89.9419 101.064 89.4685 100.766 88.8614C100.471 88.2508 100.323 87.5408 100.323 86.7312C100.323 85.9217 100.471 85.2082 100.766 84.5908C101.064 83.9699 101.479 83.4863 102.011 83.1398C102.546 82.7899 103.17 82.615 103.884 82.615C104.296 82.615 104.702 82.6836 105.103 82.8208C105.505 82.958 105.87 83.181 106.199 83.4897C106.529 83.795 106.791 84.1997 106.987 84.704C107.182 85.2082 107.28 85.8291 107.28 86.5666V87.0811H101.188V86.0315H106.045C106.045 85.5855 105.956 85.1876 105.777 84.8378C105.602 84.4879 105.352 84.2117 105.026 84.0094C104.704 83.807 104.323 83.7058 103.884 83.7058C103.4 83.7058 102.982 83.8258 102.628 84.066C102.279 84.3026 102.009 84.6114 101.821 84.9921C101.632 85.3729 101.538 85.7811 101.538 86.2167V86.9165C101.538 87.5133 101.641 88.0193 101.846 88.4343C102.056 88.846 102.345 89.1598 102.716 89.3759C103.086 89.5886 103.517 89.6949 104.007 89.6949C104.326 89.6949 104.615 89.6503 104.872 89.5612C105.133 89.4685 105.357 89.3313 105.546 89.1495C105.735 88.9643 105.88 88.7345 105.983 88.4601L107.156 88.7894C107.033 89.1873 106.825 89.5371 106.534 89.839C106.242 90.1374 105.882 90.3707 105.453 90.5388C105.024 90.7034 104.543 90.7857 104.007 90.7857Z" fill="white"/>
<path d="M26.9082 134.125V111.545H28.3548V134.125H26.9082ZM31.0803 118.769C30.998 117.998 30.6511 117.399 30.0395 116.969C29.4338 116.54 28.6459 116.325 27.6756 116.325C26.9935 116.325 26.4084 116.428 25.9203 116.634C25.4322 116.84 25.0588 117.119 24.8001 117.472C24.5414 117.825 24.4091 118.228 24.4032 118.68C24.4032 119.057 24.4885 119.383 24.659 119.66C24.8354 119.936 25.0735 120.171 25.3734 120.365C25.6733 120.553 26.0056 120.712 26.3702 120.842C26.7347 120.971 27.1023 121.08 27.4727 121.168L29.1663 121.591C29.8484 121.75 30.5041 121.965 31.1333 122.235C31.7683 122.506 32.3358 122.847 32.8356 123.258C33.3413 123.67 33.7412 124.167 34.0352 124.749C34.3292 125.331 34.4762 126.013 34.4762 126.795C34.4762 127.854 34.2057 128.786 33.6648 129.591C33.1238 130.391 32.3417 131.017 31.3185 131.47C30.3012 131.917 29.0693 132.141 27.6227 132.141C26.2173 132.141 24.9971 131.923 23.9622 131.488C22.9331 131.053 22.1275 130.418 21.5453 129.583C20.9691 128.748 20.6574 127.73 20.6104 126.531H23.8298C23.8769 127.16 24.0709 127.683 24.412 128.101C24.7531 128.518 25.197 128.83 25.7439 129.036C26.2967 129.242 26.9141 129.345 27.5962 129.345C28.3077 129.345 28.9311 129.239 29.4662 129.027C30.0072 128.809 30.4306 128.51 30.7363 128.127C31.0421 127.739 31.1979 127.286 31.2038 126.769C31.1979 126.298 31.0598 125.91 30.7893 125.605C30.5188 125.293 30.1395 125.034 29.6514 124.828C29.1692 124.617 28.6047 124.429 27.9579 124.264L25.9027 123.735C24.4149 123.352 23.2389 122.773 22.3745 121.997C21.5159 121.215 21.0867 120.177 21.0867 118.883C21.0867 117.819 21.3748 116.887 21.9511 116.087C22.5332 115.288 23.3241 114.667 24.3238 114.226C25.3235 113.779 26.4554 113.556 27.7197 113.556C29.0016 113.556 30.1248 113.779 31.0892 114.226C32.0594 114.667 32.8209 115.282 33.3737 116.07C33.9264 116.852 34.2116 117.751 34.2293 118.769H31.0803Z" fill="white"/>
<path d="M37.3152 131.867V129.503L43.5866 123.355C44.1864 122.75 44.6862 122.212 45.0861 121.741C45.4859 121.271 45.7858 120.815 45.9858 120.374C46.1857 119.933 46.2857 119.463 46.2857 118.963C46.2857 118.392 46.1563 117.904 45.8976 117.499C45.6388 117.087 45.2831 116.769 44.8303 116.546C44.3775 116.322 43.863 116.211 43.2867 116.211C42.6928 116.211 42.1724 116.334 41.7254 116.581C41.2785 116.822 40.9316 117.166 40.6846 117.613C40.4435 118.06 40.323 118.592 40.323 119.21H37.2093C37.2093 118.063 37.471 117.066 37.9944 116.22C38.5177 115.373 39.2381 114.717 40.1554 114.253C41.0786 113.788 42.1371 113.556 43.3308 113.556C44.5421 113.556 45.6065 113.782 46.5238 114.235C47.4412 114.688 48.1527 115.308 48.6584 116.096C49.17 116.884 49.4258 117.784 49.4258 118.795C49.4258 119.471 49.2964 120.136 49.0377 120.789C48.7789 121.441 48.3232 122.165 47.6705 122.958C47.0237 123.752 46.1151 124.714 44.9449 125.843L41.8313 129.009V129.133H49.6992V131.867H37.3152ZM56.5263 129.397L56.4116 130.368C56.3293 131.109 56.1823 131.861 55.9706 132.626C55.7648 133.396 55.5472 134.105 55.3179 134.752C55.0886 135.398 54.9033 135.907 54.7622 136.277H52.61C52.6923 135.919 52.804 135.431 52.9452 134.813C53.0922 134.196 53.2333 133.502 53.3686 132.732C53.5038 131.961 53.595 131.179 53.642 130.385L53.7037 129.397H56.5263ZM59.7414 128.515V125.913L67.4065 113.803H69.5763V117.507H68.2532L63.0932 125.684V125.825H73.7925V128.515H59.7414ZM68.3591 131.867V127.722L68.3944 126.557V113.803H71.4815V131.867H68.3591ZM82.8909 132.114C81.7148 132.114 80.6623 131.894 79.7332 131.453C78.8041 131.006 78.0661 130.394 77.5192 129.618C76.9782 128.842 76.6901 127.954 76.6548 126.954H79.8302C79.889 127.695 80.2095 128.301 80.7916 128.771C81.3738 129.236 82.0735 129.468 82.8909 129.468C83.5319 129.468 84.1023 129.321 84.6021 129.027C85.1019 128.733 85.4959 128.324 85.784 127.801C86.0722 127.278 86.2133 126.681 86.2074 126.01C86.2133 125.328 86.0692 124.723 85.7752 124.193C85.4812 123.664 85.0784 123.25 84.5668 122.95C84.0552 122.644 83.4672 122.491 82.8027 122.491C82.2617 122.485 81.7295 122.585 81.2062 122.791C80.6828 122.997 80.2683 123.267 79.9625 123.602L77.0076 123.117L77.9514 113.803H88.4302V116.537H80.6593L80.1389 121.327H80.2447C80.5799 120.933 81.0533 120.606 81.6649 120.348C82.2764 120.083 82.9468 119.951 83.6759 119.951C84.7697 119.951 85.7458 120.209 86.6044 120.727C87.4629 121.238 88.1391 121.944 88.6331 122.844C89.127 123.743 89.374 124.773 89.374 125.931C89.374 127.125 89.0976 128.189 88.5449 129.124C87.998 130.053 87.2365 130.785 86.2604 131.32C85.2901 131.85 84.1669 132.114 82.8909 132.114ZM99.006 132.211C97.5536 132.211 96.307 131.844 95.2661 131.109C94.2312 130.368 93.4344 129.3 92.8758 127.907C92.323 126.507 92.0466 124.823 92.0466 122.853C92.0525 120.883 92.3318 119.207 92.8846 117.825C93.4432 116.437 94.24 115.379 95.2749 114.649C96.3158 113.92 97.5595 113.556 99.006 113.556C100.453 113.556 101.696 113.92 102.737 114.649C103.778 115.379 104.575 116.437 105.127 117.825C105.686 119.213 105.965 120.889 105.965 122.853C105.965 124.828 105.686 126.516 105.127 127.916C104.575 129.309 103.778 130.374 102.737 131.109C101.702 131.844 100.458 132.211 99.006 132.211ZM99.006 129.45C100.135 129.45 101.026 128.895 101.679 127.783C102.337 126.666 102.667 125.022 102.667 122.853C102.667 121.418 102.517 120.212 102.217 119.236C101.917 118.26 101.493 117.525 100.947 117.031C100.4 116.531 99.7528 116.281 99.006 116.281C97.8829 116.281 96.995 116.84 96.3422 117.957C95.6895 119.069 95.3602 120.7 95.3543 122.853C95.3485 124.293 95.4925 125.505 95.7865 126.487C96.0864 127.469 96.5098 128.21 97.0567 128.709C97.6036 129.203 98.2534 129.45 99.006 129.45ZM110.195 132.061C109.66 132.061 109.201 131.873 108.819 131.497C108.437 131.12 108.248 130.662 108.254 130.121C108.248 129.591 108.437 129.139 108.819 128.762C109.201 128.386 109.66 128.198 110.195 128.198C110.712 128.198 111.162 128.386 111.544 128.762C111.933 129.139 112.13 129.591 112.135 130.121C112.13 130.479 112.035 130.806 111.853 131.1C111.677 131.394 111.442 131.629 111.148 131.805C110.859 131.976 110.542 132.061 110.195 132.061ZM121.371 132.211C119.918 132.211 118.671 131.844 117.631 131.109C116.596 130.368 115.799 129.3 115.24 127.907C114.687 126.507 114.411 124.823 114.411 122.853C114.417 120.883 114.696 119.207 115.249 117.825C115.808 116.437 116.604 115.379 117.639 114.649C118.68 113.92 119.924 113.556 121.371 113.556C122.817 113.556 124.061 113.92 125.102 114.649C126.142 115.379 126.939 116.437 127.492 117.825C128.051 119.213 128.33 120.889 128.33 122.853C128.33 124.828 128.051 126.516 127.492 127.916C126.939 129.309 126.142 130.374 125.102 131.109C124.067 131.844 122.823 132.211 121.371 132.211ZM121.371 129.45C122.5 129.45 123.39 128.895 124.043 127.783C124.702 126.666 125.031 125.022 125.031 122.853C125.031 121.418 124.881 120.212 124.581 119.236C124.281 118.26 123.858 117.525 123.311 117.031C122.764 116.531 122.117 116.281 121.371 116.281C120.247 116.281 119.359 116.84 118.707 117.957C118.054 119.069 117.725 120.7 117.719 122.853C117.713 124.293 117.857 125.505 118.151 126.487C118.451 127.469 118.874 128.21 119.421 128.709C119.968 129.203 120.618 129.45 121.371 129.45ZM137.938 132.211C136.485 132.211 135.239 131.844 134.198 131.109C133.163 130.368 132.366 129.3 131.807 127.907C131.255 126.507 130.978 124.823 130.978 122.853C130.984 120.883 131.263 119.207 131.816 117.825C132.375 116.437 133.172 115.379 134.207 114.649C135.247 113.92 136.491 113.556 137.938 113.556C139.384 113.556 140.628 113.92 141.669 114.649C142.71 115.379 143.506 116.437 144.059 117.825C144.618 119.213 144.897 120.889 144.897 122.853C144.897 124.828 144.618 126.516 144.059 127.916C143.506 129.309 142.71 130.374 141.669 131.109C140.634 131.844 139.39 132.211 137.938 132.211ZM137.938 129.45C139.067 129.45 139.958 128.895 140.61 127.783C141.269 126.666 141.598 125.022 141.598 122.853C141.598 121.418 141.448 120.212 141.148 119.236C140.848 118.26 140.425 117.525 139.878 117.031C139.331 116.531 138.685 116.281 137.938 116.281C136.815 116.281 135.927 116.84 135.274 117.957C134.621 119.069 134.292 120.7 134.286 122.853C134.28 124.293 134.424 125.505 134.718 126.487C135.018 127.469 135.441 128.21 135.988 128.709C136.535 129.203 137.185 129.45 137.938 129.45Z" fill="white"/>
<path d="M317.541 0.589211C317.541 -42.4477 352.429 -77.3359 395.466 -77.3359C438.503 -77.3359 473.391 -42.4477 473.391 0.589211C473.391 43.6261 438.503 78.5144 395.466 78.5144C352.429 78.5144 317.541 43.6261 317.541 0.589211Z" fill="#34D399"/>
<path d="M337.022 161.311C337.022 129.033 363.189 102.867 395.466 102.867C427.744 102.867 453.91 129.033 453.91 161.311C453.91 193.589 427.744 219.755 395.466 219.755C363.189 219.755 337.022 193.589 337.022 161.311Z" fill="#34D399"/>
</g>
<defs>
<clipPath id="clip0_1142_3269">
<path d="M0 60.3524C0 49.5932 8.72207 40.8711 19.4813 40.8711H375.989C386.748 40.8711 395.47 49.5932 395.47 60.3524V182.11C395.47 192.87 386.748 201.592 375.989 201.592H19.4813C8.7221 201.592 0 192.87 0 182.11V60.3524Z" fill="white"/>
</clipPath>
<clipPath id="clip1_1142_3269">
<rect width="19.4813" height="19.4813" fill="white" transform="translate(34.0927 70.0938)"/>
</clipPath>
<clipPath id="clip2_1142_3269">
<path d="M0 42.9578C0 32.1986 8.72207 23.4766 19.4813 23.4766H375.989C386.748 23.4766 395.47 32.1986 395.47 42.9578V164.716C395.47 175.475 386.748 184.197 375.989 184.197H19.4813C8.7221 184.197 0 175.475 0 164.716V42.9578Z" fill="white"/>
</clipPath>
<clipPath id="clip3_1142_3269">
<rect width="19.4813" height="19.4813" fill="white" transform="translate(34.0927 52.6953)"/>
</clipPath>
<clipPath id="clip4_1142_3269">
<path d="M0 20.0711C0 9.31191 8.72207 0.589844 19.4813 0.589844H375.989C386.748 0.589844 395.47 9.31191 395.47 20.0711V141.829C395.47 152.588 386.748 161.31 375.989 161.31H19.4813C8.7221 161.31 0 152.588 0 141.829V20.0711Z" fill="white"/>
</clipPath>
<clipPath id="clip5_1142_3269">
<rect width="19.4813" height="19.4813" fill="white" transform="translate(34.0927 29.8125)"/>
</clipPath>
</defs>
</svg>
