<svg width="46" height="47" viewBox="0 0 46 47" fill="none" xmlns="http://www.w3.org/2000/svg">
<rect y="0.578125" width="46" height="46" rx="11.5" fill="#2EE7A3"/>
<path d="M18.5 19.5781C19.2956 19.5781 20.0587 19.2621 20.6213 18.6994C21.1839 18.1368 21.5 17.3738 21.5 16.5781C21.5 15.7825 21.1839 15.0194 20.6213 14.4568C20.0587 13.8942 19.2956 13.5781 18.5 13.5781C17.7044 13.5781 16.9413 13.8942 16.3787 14.4568C15.8161 15.0194 15.5 15.7825 15.5 16.5781C15.5 17.3738 15.8161 18.1368 16.3787 18.6994C16.9413 19.2621 17.7044 19.5781 18.5 19.5781ZM13 22.3461C13 21.3681 13.791 20.5781 14.768 20.5781H19.535C19.1842 21.1863 18.9997 21.8761 19 22.5781C19 23.1456 19.1207 23.7066 19.3541 24.2238C19.5876 24.7411 19.9284 25.2027 20.354 25.5781H19.268C18.7044 25.5781 18.1542 25.7501 17.6909 26.071C17.2276 26.3919 16.8732 26.8465 16.675 27.3741C15.177 27.0081 14.248 26.1911 13.701 25.2811C13 24.1141 13 22.9141 13 22.7051V22.3461ZM27 22.5781C27.0003 21.8761 26.8158 21.1863 26.465 20.5781H31.232C32.21 20.5781 33 21.3691 33 22.3461V22.7061C33 22.9131 33 24.1141 32.3 25.2811C31.752 26.1911 30.823 27.0081 29.325 27.3741C29.1268 26.8465 28.7724 26.3919 28.3091 26.071C27.8458 25.7501 27.2956 25.5781 26.732 25.5781H25.646C26.0716 25.2027 26.4124 24.7411 26.6459 24.2238C26.8793 23.7066 27 23.1456 27 22.5781ZM30.5 16.5781C30.5 17.3738 30.1839 18.1368 29.6213 18.6994C29.0587 19.2621 28.2956 19.5781 27.5 19.5781C26.7044 19.5781 25.9413 19.2621 25.3787 18.6994C24.8161 18.1368 24.5 17.3738 24.5 16.5781C24.5 15.7825 24.8161 15.0194 25.3787 14.4568C25.9413 13.8942 26.7044 13.5781 27.5 13.5781C28.2956 13.5781 29.0587 13.8942 29.6213 14.4568C30.1839 15.0194 30.5 15.7825 30.5 16.5781ZM17.5 28.3461C17.5 27.3681 18.291 26.5781 19.268 26.5781H26.732C27.709 26.5781 28.5 27.3691 28.5 28.3461V28.7061C28.5 28.9131 28.5 30.1141 27.8 31.2811C27.057 32.5151 25.613 33.5781 23 33.5781C20.387 33.5781 18.942 32.5151 18.2 31.2811C17.5 30.1141 17.5 28.9141 17.5 28.7051V28.3461ZM23 25.5781C23.394 25.5781 23.7841 25.5005 24.1481 25.3498C24.512 25.199 24.8427 24.978 25.1213 24.6994C25.3999 24.4209 25.6209 24.0902 25.7716 23.7262C25.9224 23.3622 26 22.9721 26 22.5781C26 22.1842 25.9224 21.7941 25.7716 21.4301C25.6209 21.0661 25.3999 20.7354 25.1213 20.4568C24.8427 20.1782 24.512 19.9573 24.1481 19.8065C23.7841 19.6557 23.394 19.5781 23 19.5781C22.2044 19.5781 21.4413 19.8942 20.8787 20.4568C20.3161 21.0194 20 21.7825 20 22.5781C20 23.3738 20.3161 24.1368 20.8787 24.6994C21.4413 25.2621 22.2044 25.5781 23 25.5781Z" fill="#0D4049"/>
</svg>
