<svg width="40" height="41" viewBox="0 0 40 41" fill="none" xmlns="http://www.w3.org/2000/svg">
<rect x="0.5" y="1.25" width="39" height="39" rx="19.5" stroke="white"/>
<path d="M29.6875 20.75C29.6875 15.3984 25.3516 11.0625 20 11.0625C14.6484 11.0625 10.3125 15.3984 10.3125 20.75C10.3125 25.5852 13.8551 29.593 18.4863 30.3203V23.5504H16.0254V20.75H18.4863V18.6156C18.4863 16.1879 19.9316 14.8469 22.1453 14.8469C23.2055 14.8469 24.3141 15.0359 24.3141 15.0359V17.4187H23.0922C21.8891 17.4187 21.5137 18.1656 21.5137 18.9316V20.75H24.2004L23.7707 23.5504H21.5137V30.3203C26.1449 29.593 29.6875 25.5852 29.6875 20.75Z" fill="#2EE7A3"/>
</svg>
