<svg width="56" height="56" viewBox="0 0 56 56" fill="none" xmlns="http://www.w3.org/2000/svg">
  <rect width="56" height="56" rx="28" fill="#D0FAEB"/>
  <path d="M28 18C22.48 18 18 22.48 18 28C18 33.52 22.48 38 28 38C33.52 38 38 33.52 38 28C38 22.48 33.52 18 28 18ZM28 36C23.59 36 20 32.41 20 28C20 23.59 23.59 20 28 20C32.41 20 36 23.59 36 28C36 32.41 32.41 36 28 36ZM29.5 23L27 25.5L24.5 23L23 24.5L25.5 27L23 29.5L24.5 31L27 28.5L29.5 31L31 29.5L28.5 27L31 24.5L29.5 23Z" fill="#2EE7A3"/>
</svg>
