<svg width="46" height="47" viewBox="0 0 46 47" fill="none" xmlns="http://www.w3.org/2000/svg">
<rect y="0.578125" width="46" height="46" rx="11.5" fill="#2EE7A3"/>
<path fill-rule="evenodd" clip-rule="evenodd" d="M25.7042 14.7781C25.7042 15.3616 25.4724 15.9211 25.0598 16.3337C24.6472 16.7463 24.0876 16.9781 23.5042 16.9781C22.9207 16.9781 22.3611 16.7463 21.9485 16.3337C21.536 15.9211 21.3042 15.3616 21.3042 14.7781C21.3042 14.1946 21.536 13.6351 21.9485 13.2225C22.3611 12.8099 22.9207 12.5781 23.5042 12.5781C24.0876 12.5781 24.6472 12.8099 25.0598 13.2225C25.4724 13.6351 25.7042 14.1946 25.7042 14.7781ZM31.5556 26.0224H22.8484L25.5899 28.7272C25.7012 28.8371 25.7904 28.9674 25.8527 29.111L27.4825 32.8693C27.5464 33.0165 27.5806 33.1749 27.5833 33.3354C27.586 33.4959 27.557 33.6554 27.498 33.8047C27.4391 33.954 27.3513 34.0902 27.2397 34.2056C27.1281 34.3209 26.9948 34.4132 26.8476 34.4771C26.7003 34.541 26.5419 34.5752 26.3814 34.5779C26.2209 34.5805 26.0614 34.5516 25.9121 34.4926C25.7628 34.4336 25.6266 34.3459 25.5112 34.2343C25.3959 34.1226 25.3036 33.9894 25.2397 33.8421L23.704 30.3002L19.3682 26.0224H14.4444C14.1203 26.0224 13.8094 26.1512 13.5802 26.3804C13.351 26.6096 13.2222 26.9205 13.2222 27.2447V34.5779H12V27.2447C12 26.5964 12.2575 25.9746 12.716 25.5162C13.1744 25.0578 13.7961 24.8002 14.4444 24.8002H18.0891C17.6314 23.259 17.7994 21.6665 18.1606 20.4345C18.3543 19.7739 18.6159 19.172 18.9086 18.6916C19.0517 18.4525 19.2193 18.2289 19.4085 18.0243C19.5814 17.8416 19.8424 17.6118 20.1907 17.4822C20.9497 17.2005 21.7454 17.2219 22.4549 17.5886C23.1351 17.9406 23.6142 18.545 23.9246 19.2117C24.0525 19.4863 24.1715 19.7435 24.2815 19.9835C24.5504 20.564 24.7747 21.0523 24.9904 21.4813C25.2935 22.0839 25.5331 22.4738 25.7653 22.7439C25.9773 22.9914 26.1845 23.1392 26.4485 23.2425C26.7357 23.355 27.1488 23.4362 27.8033 23.4558C27.971 23.4608 28.1359 23.5003 28.2877 23.5718C28.4394 23.6433 28.5749 23.7453 28.6855 23.8714C28.7962 23.9976 28.8797 24.1451 28.9308 24.3049C28.9819 24.4647 28.9996 24.6333 28.9828 24.8002H31.5556C32.2039 24.8002 32.8256 25.0578 33.284 25.5162C33.7425 25.9746 34 26.5964 34 27.2447V34.5779H32.7778V27.2447C32.7778 26.9205 32.649 26.6096 32.4198 26.3804C32.1906 26.1512 31.8797 26.0224 31.5556 26.0224ZM23.2218 23.3501L22.9071 24.8002H24.3689C24.2051 24.6567 24.0519 24.5014 23.9106 24.3358C23.652 24.0285 23.4215 23.6986 23.2218 23.3501ZM18.4081 27.1065L20.4248 29.0407L19.6627 31.6134C19.6318 31.7186 19.5874 31.8176 19.5295 31.9104L18.2327 34.0004C18.0617 34.2759 17.7883 34.4721 17.4726 34.546C17.157 34.6198 16.8249 34.5653 16.5494 34.3943C16.274 34.2233 16.0777 33.9499 16.0039 33.6342C15.93 33.3185 15.9846 32.9864 16.1556 32.711L17.3656 30.7616L18.1857 27.9945L18.4081 27.1065Z" fill="#0D4049"/>
</svg>
