<svg width="46" height="47" viewBox="0 0 46 47" fill="none" xmlns="http://www.w3.org/2000/svg">
<rect y="0.578125" width="46" height="46" rx="11.5" fill="#2EE7A3"/>
<path d="M30.9062 23.5782H19.7656V18.9467C19.7656 17.1678 21.1896 15.6899 22.9686 15.6719C24.7654 15.654 26.2344 17.1139 26.2344 18.9063V19.625C26.2344 20.2225 26.715 20.7032 27.3125 20.7032H28.75C29.3475 20.7032 29.8281 20.2225 29.8281 19.625V18.9063C29.8281 15.1329 26.751 12.0647 22.9775 12.0782C19.2041 12.0916 16.1719 15.2002 16.1719 18.9737V23.5782H15.0938C13.9033 23.5782 12.9375 24.544 12.9375 25.7344V32.9219C12.9375 34.1123 13.9033 35.0782 15.0938 35.0782H30.9062C32.0967 35.0782 33.0625 34.1123 33.0625 32.9219V25.7344C33.0625 24.544 32.0967 23.5782 30.9062 23.5782ZM24.7969 30.4063C24.7969 31.3991 23.9928 32.2032 23 32.2032C22.0072 32.2032 21.2031 31.3991 21.2031 30.4063V28.25C21.2031 27.2573 22.0072 26.4532 23 26.4532C23.9928 26.4532 24.7969 27.2573 24.7969 28.25V30.4063Z" fill="#0D4049"/>
</svg>
