<svg width="151" height="33" viewBox="0 0 151 33" fill="none" xmlns="http://www.w3.org/2000/svg">
<path d="M10.3382 0.00697517C9.97973 0.03578 9.09634 0.154205 8.70906 0.231022C7.53761 0.458271 6.70223 0.736731 5.68121 1.23604C4.2089 1.95619 2.95743 3.00282 1.98442 4.3247C1.18745 5.41293 0.65614 6.58438 0.304065 8.03749C0.0896192 8.91768 0 9.71465 0 10.7581C0 12.1408 0.169636 13.2354 0.576123 14.4837C1.3923 16.9866 3.30631 19.1215 5.79644 20.3089C6.95509 20.8594 8.14254 21.1955 9.66607 21.4035C10.3862 21.5028 12.0058 21.5124 12.6747 21.4228C14.5247 21.1731 15.8658 20.7346 17.3029 19.912C17.735 19.6624 18.3047 19.2815 18.4135 19.1695L18.5 19.0766L18.2983 18.8366C18.1863 18.7054 17.575 18.0748 16.9412 17.4315C15.9074 16.3881 15.7794 16.2664 15.725 16.3017C14.7071 16.9738 13.9742 17.2939 12.9948 17.4955C12.3482 17.6299 11.8649 17.6651 11.052 17.6459C10.3222 17.6299 9.92532 17.5787 9.27878 17.4155C6.72784 16.769 4.93545 14.9702 4.34333 12.4544C3.92724 10.6877 4.14489 8.79925 4.93866 7.31734C5.43476 6.38594 6.29255 5.46734 7.20154 4.89442C8.81148 3.8798 10.8663 3.55013 13.1868 3.92781C14.6271 4.16466 15.8914 4.76319 17.0276 5.7426C17.1589 5.85782 17.2965 5.98265 17.3317 6.02426C17.3669 6.06267 17.4117 6.10108 17.4341 6.10748C17.4693 6.11708 20.1963 3.4253 20.1963 3.3805C20.1963 3.35489 19.7322 2.90679 19.4922 2.70195C17.719 1.20083 15.6065 0.352648 12.9468 0.0645866C12.4891 0.0165768 10.7511 -0.0218315 10.3382 0.00697517Z" fill="white"/>
<path d="M11.1133 11.5601C11.1197 11.5761 11.9391 12.4083 12.9345 13.4165L14.1558 14.6509C14.5315 15.0305 15.0434 15.2441 15.5775 15.2441H17.0058H17.2686C18.3732 15.2441 19.2686 16.1396 19.2686 17.2441V17.4046V19.2285C19.2686 19.4433 19.3472 19.6506 19.4895 19.8115C19.6111 19.9491 19.7647 20.1124 19.832 20.1732C19.9024 20.2372 20.4401 20.7813 21.029 21.3894C21.6179 21.9976 22.3061 22.7017 22.5589 22.9578C22.7266 23.1278 23.016 23.0088 23.0156 22.7701L23.007 17.4846L23.0007 13.542C22.9989 12.4395 22.1053 11.5464 21.0028 11.5452L17.0506 11.5409C13.7795 11.5377 11.1069 11.5473 11.1133 11.5601Z" fill="#1ECD88"/>
<path d="M36.9048 10.0907H39.84V23.6797H36.9048V21.7229C35.7996 23.263 34.2142 24.033 32.1487 24.033C30.2824 24.033 28.688 23.3445 27.3653 21.9675C26.0427 20.5723 25.3813 18.8782 25.3813 16.8852C25.3813 14.874 26.0427 13.1799 27.3653 11.8029C28.688 10.4259 30.2824 9.73736 32.1487 9.73736C34.2142 9.73736 35.7996 10.4983 36.9048 12.0203V10.0907ZM29.5396 20.0107C30.3549 20.826 31.3786 21.2337 32.6107 21.2337C33.8428 21.2337 34.8665 20.826 35.6818 20.0107C36.4972 19.1772 36.9048 18.1354 36.9048 16.8852C36.9048 15.635 36.4972 14.6022 35.6818 13.7869C34.8665 12.9534 33.8428 12.5367 32.6107 12.5367C31.3786 12.5367 30.3549 12.9534 29.5396 13.7869C28.7242 14.6022 28.3166 15.635 28.3166 16.8852C28.3166 18.1354 28.7242 19.1772 29.5396 20.0107ZM46.1965 12.3736C46.9394 10.6886 48.3345 9.84608 50.3819 9.84608V13.0259C49.2586 12.9534 48.2802 13.2252 47.4467 13.8412C46.6132 14.4392 46.1965 15.4357 46.1965 16.8308V23.6797H43.2613V10.0907H46.1965V12.3736ZM58.3277 24.033C56.3346 24.033 54.6405 23.3445 53.2454 21.9675C51.8503 20.5905 51.1527 18.8964 51.1527 16.8852C51.1527 14.874 51.8503 13.1799 53.2454 11.8029C54.6405 10.4259 56.3346 9.73736 58.3277 9.73736C60.3389 9.73736 62.0329 10.4259 63.41 11.8029C64.8051 13.1799 65.5027 14.874 65.5027 16.8852C65.5027 18.8964 64.8051 20.5905 63.41 21.9675C62.0329 23.3445 60.3389 24.033 58.3277 24.033ZM55.3109 19.9563C56.1263 20.7716 57.1318 21.1793 58.3277 21.1793C59.5235 21.1793 60.5291 20.7716 61.3444 19.9563C62.1598 19.141 62.5675 18.1173 62.5675 16.8852C62.5675 15.6531 62.1598 14.6294 61.3444 13.8141C60.5291 12.9987 59.5235 12.5911 58.3277 12.5911C57.1318 12.5911 56.1263 12.9987 55.3109 13.8141C54.4956 14.6294 54.0879 15.6531 54.0879 16.8852C54.0879 18.1173 54.4956 19.141 55.3109 19.9563ZM74.5708 24.033C72.5777 24.033 70.8836 23.3445 69.4885 21.9675C68.0934 20.5905 67.3958 18.8964 67.3958 16.8852C67.3958 14.874 68.0934 13.1799 69.4885 11.8029C70.8836 10.4259 72.5777 9.73736 74.5708 9.73736C76.582 9.73736 78.2761 10.4259 79.6531 11.8029C81.0482 13.1799 81.7458 14.874 81.7458 16.8852C81.7458 18.8964 81.0482 20.5905 79.6531 21.9675C78.2761 23.3445 76.582 24.033 74.5708 24.033ZM71.554 19.9563C72.3694 20.7716 73.375 21.1793 74.5708 21.1793C75.7666 21.1793 76.7722 20.7716 77.5875 19.9563C78.4029 19.141 78.8106 18.1173 78.8106 16.8852C78.8106 15.6531 78.4029 14.6294 77.5875 13.8141C76.7722 12.9987 75.7666 12.5911 74.5708 12.5911C73.375 12.5911 72.3694 12.9987 71.554 13.8141C70.7387 14.6294 70.331 15.6531 70.331 16.8852C70.331 18.1173 70.7387 19.141 71.554 19.9563ZM91.5477 9.73736C93.1059 9.73736 94.3652 10.2356 95.3255 11.2322C96.2857 12.2287 96.7659 13.5966 96.7659 15.336V23.6797H93.8307V15.635C93.8307 14.6203 93.5589 13.8412 93.0153 13.2977C92.4718 12.7541 91.7289 12.4823 90.7867 12.4823C89.754 12.4823 88.9205 12.8085 88.2863 13.4608C87.6522 14.0949 87.3351 15.0733 87.3351 16.396V23.6797H84.3999V10.0907H87.3351V11.8301C88.2229 10.4349 89.6271 9.73736 91.5477 9.73736Z" fill="white"/>
<path d="M113.222 5.00733H114.662V24.0312H113.222V14.9269H102.161V24.0312H100.721V5.00733H102.161V13.5681H113.222V5.00733ZM128.89 10.4427H130.249V24.0312H128.89V21.4494C127.912 23.3699 126.29 24.3302 124.025 24.3302C122.413 24.3302 121.127 23.841 120.166 22.8626C119.224 21.8661 118.753 20.5435 118.753 18.8948V10.4427H120.139V18.8948C120.139 20.1631 120.483 21.1686 121.172 21.9114C121.879 22.6543 122.866 23.0257 124.134 23.0257C125.529 23.0257 126.671 22.5637 127.558 21.6397C128.446 20.7157 128.89 19.3749 128.89 17.6175V10.4427ZM141.649 10.1438C143.605 10.1438 145.263 10.8323 146.622 12.2092C147.999 13.5681 148.687 15.244 148.687 17.237C148.687 19.23 147.999 20.915 146.622 22.2919C145.263 23.6508 143.605 24.3302 141.649 24.3302C140.362 24.3302 139.203 24.0222 138.17 23.4062C137.155 22.7902 136.367 21.9477 135.805 20.8787V24.0312H134.447V5.00733H135.805V13.5953C136.367 12.5263 137.155 11.6838 138.17 11.0678C139.203 10.4518 140.362 10.1438 141.649 10.1438ZM137.463 21.3407C138.587 22.464 139.954 23.0257 141.567 23.0257C143.179 23.0257 144.538 22.464 145.644 21.3407C146.767 20.2174 147.329 18.8495 147.329 17.237C147.329 15.6245 146.767 14.2566 145.644 13.1333C144.538 12.0099 143.179 11.4483 141.567 11.4483C139.954 11.4483 138.587 12.0099 137.463 13.1333C136.358 14.2566 135.805 15.6245 135.805 17.237C135.805 18.8495 136.358 20.2174 137.463 21.3407Z" fill="white"/>
</svg>
