<svg width="135" height="40" viewBox="0 0 135 40" fill="none" xmlns="http://www.w3.org/2000/svg">
  <rect width="135" height="40" rx="6" fill="black"/>
  <path d="M68.136 21.752c-2.352 0-4.269 1.788-4.269 4.253 0 2.449 1.917 4.253 4.269 4.253 2.352 0 4.269-1.804 4.269-4.253 0-2.465-1.917-4.253-4.269-4.253zm0 6.83c-1.289 0-2.401-1.063-2.401-2.578 0-1.531 1.112-2.578 2.401-2.578 1.289 0 2.4 1.047 2.4 2.578 0 1.515-1.111 2.578-2.4 2.578zm-9.314-6.83c-2.352 0-4.269 1.788-4.269 4.253 0 2.449 1.917 4.253 4.269 4.253 2.352 0 4.269-1.804 4.269-4.253 0-2.465-1.917-4.253-4.269-4.253zm0 6.83c-1.289 0-2.401-1.063-2.401-2.578 0-1.531 1.112-2.578 2.401-2.578 1.289 0 2.4 1.047 2.4 2.578 0 1.515-1.111 2.578-2.4 2.578zm-11.078-5.525v1.804h4.318c-.129 1.015-.467 1.756-.983 2.272-.628.628-1.611 1.321-3.335 1.321-2.658 0-4.736-2.143-4.736-4.801s2.078-4.801 4.736-4.801c1.434 0 2.481.564 3.254 1.289l1.273-1.273c-1.079-1.031-2.513-1.82-4.527-1.82-3.641 0-6.702 2.964-6.702 6.605 0 3.641 3.061 6.605 6.702 6.605 1.965 0 3.448-.644 4.608-1.853 1.192-1.192 1.563-2.868 1.563-4.221 0-.419-.032-.806-.097-1.128h-6.074zm45.308 1.401c-.354-.951-1.434-2.706-3.641-2.706-2.191 0-4.01 1.724-4.01 4.253 0 2.382 1.804 4.253 4.221 4.253 1.949 0 3.077-1.192 3.544-1.885l-1.45-.967c-.483.709-1.144 1.176-2.094 1.176-.951 0-1.627-.435-2.062-1.289l5.687-2.352-.195-.483zm-5.8 1.418c-.048-1.643 1.273-2.481 2.223-2.481.741 0 1.369.371 1.579.902l-3.802 1.579zm-4.623 4.124h1.869V16.975h-1.869V30zm-3.061-7.649h-.064c-.419-.499-1.224-.951-2.239-.951-2.127 0-4.076 1.869-4.076 4.269 0 2.381 1.949 4.236 4.076 4.236 1.015 0 1.82-.451 2.239-.966h.064v.612c0 1.627-.87 2.497-2.272 2.497-1.144 0-1.853-.822-2.143-1.514l-1.627.677c.467 1.128 1.708 2.513 3.77 2.513 2.191 0 4.044-1.289 4.044-4.43v-7.636h-1.772v.693zm-2.143 6.167c-1.289 0-2.368-1.079-2.368-2.562 0-1.498 1.079-2.594 2.368-2.594 1.273 0 2.271 1.096 2.271 2.594 0 1.483-.998 2.562-2.271 2.562zm24.381-11.618h-4.471V30h1.865v-4.932h2.606c2.068 0 4.101-1.497 4.101-3.883s-2.033-3.884-4.101-3.884zm.048 6.025h-2.654v-4.285h2.654c1.395 0 2.187 1.155 2.187 2.143 0 .968-.792 2.142-2.187 2.142zm11.532-1.795c-1.351 0-2.75.595-3.329 1.914l1.657.692c.354-.692 1.013-.917 1.705-.917.965 0 1.946.579 1.962 1.608v.129c-.338-.193-1.062-.483-1.946-.483-1.785 0-3.603.981-3.603 2.815 0 1.673 1.464 2.75 3.104 2.75 1.255 0 1.946-.563 2.379-1.222h.064v.965h1.801v-4.793c0-2.22-1.656-3.458-3.794-3.458zm-.225 6.851c-.611 0-1.464-.306-1.464-1.062 0-.965 1.062-1.335 1.978-1.335.82 0 1.206.177 1.705.418-.145 1.159-1.142 1.979-2.219 1.979zm10.582-6.578l-2.139 5.42h-.064l-2.219-5.42h-2.01l3.329 7.575-1.898 4.214h1.946l5.131-11.789h-2.076zm-16.807 7.998h1.866V16.975h-1.866V30z" fill="white"/>
  <path d="M21.167 21.375l-8.54 9.056c.178.166.373.315.584.444 1.684 1.03 3.84-.134 3.84-.134s11.791-6.463 12.578-6.887c.787-.424 1.356-1.228.515-2.1-.841-.872-8.977-9.754-8.977-9.754s-.206-.228-.462-.228c-.33 0-.661.228-.661.228s-.178.155-.346.33c-.168.176-.168.346-.168.346s8.374 8.374 8.663 8.663c.289.289.083.578-.248.744-.33.165-6.422 3.51-6.422 3.51l-.356-4.218z" fill="#EA4335"/>
  <path d="M12.627 11.5c-.178-.166-.373-.315-.584-.444-1.684-1.03-3.84.134-3.84.134S3.586 17.653 2.8 18.077c-.787.424-1.356 1.228-.515 2.1.841.872 8.977 9.754 8.977 9.754s.206.228.462.228c.33 0 .661-.228.661-.228s.178-.155.346-.33c.168-.176.168-.346.168-.346s-8.374-8.374-8.663-8.663c-.289-.289-.083-.578.248-.744.33-.165 6.422-3.51 6.422-3.51l.356 4.218 1.365-9.056z" fill="#FBBC04"/>
  <path d="M12.627 30.131c.787.424 1.684.485 2.54 0 .856-.485 8.54-4.671 8.54-4.671l-8.54-9.056-1.365 9.056-1.175 4.671z" fill="#4285F4"/>
  <path d="M12.627 11.5l8.54 9.056 1.365-9.056 1.175-4.671c-.787-.424-1.684-.485-2.54 0-.856.485-8.54 4.671-8.54 4.671z" fill="#34A853"/>
</svg>
