<svg width="40" height="41" viewBox="0 0 40 41" fill="none" xmlns="http://www.w3.org/2000/svg">
<rect x="0.5" y="1.25" width="39" height="39" rx="19.5" stroke="white"/>
<path d="M27.9441 16.6771C27.9568 16.8548 27.9568 17.0325 27.9568 17.2101C27.9568 22.6289 23.8325 28.8725 16.2944 28.8725C13.9721 28.8725 11.8147 28.1999 10 27.0325C10.33 27.0705 10.6472 27.0832 10.9898 27.0832C12.9061 27.0832 14.67 26.436 16.0787 25.332C14.2766 25.2939 12.7665 24.1137 12.2462 22.4893C12.5 22.5273 12.7538 22.5527 13.0203 22.5527C13.3883 22.5527 13.7564 22.502 14.099 22.4132C12.2208 22.0324 10.8121 20.3827 10.8121 18.3903V18.3396C11.3578 18.6441 11.9924 18.8345 12.6649 18.8598C11.5609 18.1238 10.8375 16.8675 10.8375 15.4461C10.8375 14.6847 11.0405 13.9868 11.3959 13.3776C13.4137 15.8649 16.4467 17.4893 19.8477 17.667C19.7842 17.3624 19.7461 17.0452 19.7461 16.7279C19.7461 14.469 21.5736 12.6289 23.8451 12.6289C25.0253 12.6289 26.0913 13.1238 26.84 13.9233C27.7664 13.7457 28.6547 13.403 29.4416 12.9335C29.137 13.8853 28.4898 14.6848 27.6395 15.1923C28.4644 15.1036 29.2639 14.8751 29.9999 14.5579C29.4416 15.37 28.7436 16.0933 27.9441 16.6771Z" fill="#2EE7A3"/>
</svg>
