<svg width="40" height="41" viewBox="0 0 40 41" fill="none" xmlns="http://www.w3.org/2000/svg">
<rect x="0.5" y="1.25" width="39" height="39" rx="19.5" stroke="white"/>
<path d="M29.0853 16.1722C28.8672 15.351 28.2246 14.7042 27.4088 14.4848C25.9299 14.0859 20 14.0859 20 14.0859C20 14.0859 14.0702 14.0859 12.5913 14.4848C11.7755 14.7043 11.1329 15.351 10.9148 16.1722C10.5186 17.6606 10.5186 20.7661 10.5186 20.7661C10.5186 20.7661 10.5186 23.8716 10.9148 25.36C11.1329 26.1812 11.7755 26.801 12.5913 27.0205C14.0702 27.4193 20 27.4193 20 27.4193C20 27.4193 25.9299 27.4193 27.4088 27.0205C28.2246 26.801 28.8672 26.1812 29.0853 25.36C29.4815 23.8716 29.4815 20.7661 29.4815 20.7661C29.4815 20.7661 29.4815 17.6606 29.0853 16.1722ZM18.0606 23.5856V17.9465L23.0169 20.7661L18.0606 23.5856Z" fill="#2EE7A3"/>
</svg>
